<svg width="82" height="82" viewBox="0 0 82 82" fill="none" xmlns="http://www.w3.org/2000/svg">
<g clip-path="url(#clip0)">
<path d="M70.1551 29.005C70.8185 29.005 71.3563 28.4674 71.3563 27.8038V14.3099C71.3563 13.7059 70.9996 13.1577 70.4473 12.9123L41.6201 0.131388C41.2258 -0.0438227 40.7738 -0.0436626 40.3803 0.131068L11.552 12.9125C11 13.1575 10.6435 13.7059 10.6435 14.3099V39.2606C10.6435 48.5863 13.4588 57.5618 18.785 65.2168C24.1112 72.8718 31.5485 78.6315 40.2927 81.8731C40.7487 82.0422 41.2512 82.0422 41.7074 81.8729C50.4516 78.6313 57.8888 72.8716 63.2149 65.2166C68.5411 57.5617 71.3565 48.5862 71.3565 39.2606V33.4095C71.3565 32.7459 70.8187 32.2083 70.1553 32.2083C69.4919 32.2083 68.9541 32.7459 68.9541 33.4095V39.2606C68.9541 57.1283 57.7254 73.3109 41.0001 79.5729C24.2731 73.3119 13.0456 57.1294 13.0456 39.2606V14.8781L40.9998 2.48424L68.954 14.8781V27.8038C68.954 28.4674 69.4918 29.005 70.1551 29.005Z" fill="url(#paint0_linear)"/>
<path d="M47.1244 40.2096C47.5935 40.6786 48.3541 40.6786 48.8231 40.2096L52.8388 36.1939C53.5821 35.4504 53.5821 34.2411 52.8388 33.4978L49.5884 30.2471C48.8452 29.5038 47.6358 29.504 46.8924 30.2471L37.9962 39.1435L34.0584 35.2055C33.3151 34.4623 32.1056 34.4621 31.3623 35.2055L28.1116 38.4562C27.3685 39.1997 27.3687 40.409 28.1118 41.1523L36.6481 49.6886C37.3917 50.4321 38.6008 50.4316 39.3442 49.6886L44.7892 44.2436C45.2583 43.7744 45.2583 43.014 44.7892 42.5449C44.3201 42.0759 43.5595 42.0759 43.0906 42.5449L37.9962 47.6394L30.1612 39.8043L32.7104 37.2551L36.6481 41.193C37.3916 41.9364 38.6009 41.9358 39.3442 41.193L48.2402 32.2966L50.7894 34.8458L47.1243 38.511C46.6552 38.9801 46.6552 39.7405 47.1244 40.2096Z" fill="url(#paint1_linear)"/>
<path d="M40.9997 77.1433C41.6631 77.1433 42.2009 76.6057 42.2009 75.9421V58.6475C52.2743 58.0253 60.2792 49.6326 60.2792 39.4054C60.2792 29.1781 52.2744 20.7851 42.2009 20.1629V6.03394C42.2009 5.37041 41.6631 4.83276 40.9997 4.83276C40.3364 4.83276 39.7986 5.37041 39.7986 6.03394V20.1637C37.1168 20.3317 34.4807 21.0595 32.1098 22.2936C31.5214 22.5999 31.2925 23.3252 31.5989 23.9136C31.9054 24.5024 32.6308 24.7311 33.219 24.4244C35.2814 23.3508 37.4896 22.7289 39.7986 22.5694V28.3474C39.7986 29.0109 40.3364 29.5486 40.9997 29.5486C41.6631 29.5486 42.2009 29.0109 42.2009 28.3474V22.5704C50.9486 23.1884 57.8769 30.5029 57.8769 39.4052C57.8769 48.3073 50.9486 55.6218 42.2009 56.2399V53.3652C42.2009 52.7017 41.6631 52.1641 40.9997 52.1641C40.3364 52.1641 39.7986 52.7017 39.7986 53.3652V56.2399C31.0508 55.6218 24.1226 48.3073 24.1226 39.4052C24.1226 34.9559 25.839 30.7571 28.9557 27.5823C29.4204 27.1089 29.4134 26.3485 28.94 25.8839C28.4666 25.4191 27.706 25.4261 27.2414 25.8996C23.6811 29.5263 21.7203 34.3227 21.7203 39.4054C21.7203 49.6326 29.7252 58.0255 39.7986 58.6475V75.942C39.7986 76.6055 40.3364 77.1433 40.9997 77.1433Z" fill="url(#paint2_linear)"/>
</g>
<defs>
<linearGradient id="paint0_linear" x1="8.71946" y1="87.4065" x2="88.4962" y2="62.7428" gradientUnits="userSpaceOnUse">
<stop stop-color="#E9B965"/>
<stop offset="1" stop-color="#F3CC88"/>
</linearGradient>
<linearGradient id="paint1_linear" x1="26.7354" y1="51.6014" x2="55.9009" y2="36.2919" gradientUnits="userSpaceOnUse">
<stop stop-color="#E9B965"/>
<stop offset="1" stop-color="#F3CC88"/>
</linearGradient>
<linearGradient id="paint2_linear" x1="20.4984" y1="81.911" x2="73.3854" y2="70.1354" gradientUnits="userSpaceOnUse">
<stop stop-color="#E9B965"/>
<stop offset="1" stop-color="#F3CC88"/>
</linearGradient>
<clipPath id="clip0">
<rect width="82" height="82" fill="white"/>
</clipPath>
</defs>
</svg>
