<svg width="82" height="82" viewBox="0 0 82 82" fill="none" xmlns="http://www.w3.org/2000/svg">
<path d="M81.6016 46.6189C81.1484 46.1341 80.3883 46.1085 79.9035 46.5614L75.0333 51.113L52.7175 29.0944L81.5453 2.07799C82.0293 1.62426 82.0539 0.864002 81.6004 0.38001C81.1468 -0.103982 80.3864 -0.128646 79.9024 0.324916L50.163 28.1956C49.6726 28.6551 49.6623 29.4553 50.1407 29.9274L52.1146 31.8747L51.4846 32.4311L38.2907 31.295C38.0872 31.2777 37.8756 31.3127 37.6898 31.3986L27.236 36.1597C27.2055 36.1519 27.1751 36.1442 27.1436 36.1386L21.1303 35.0774L21.6166 33.8344C21.857 33.2197 21.5567 32.5263 20.9439 32.2814L1.72259 24.5929C1.10631 24.3461 0.407389 24.6461 0.161069 25.2622C-0.0854116 25.8782 0.214241 26.5774 0.830362 26.8237L18.9445 34.0695L8.26978 61.3488L1.67743 59.0139C1.05186 58.7925 0.365428 59.1197 0.143932 59.7453C-0.077564 60.3707 0.249956 61.0573 0.875366 61.2788L8.56383 64.0018C9.1673 64.2156 9.85052 63.9028 10.0835 63.307L11.8675 58.748L16.542 61.3675L16.0265 62.2032C14.5657 64.5708 15.3032 67.6855 17.671 69.1465C18.9231 69.9191 20.4774 70.1023 21.8765 69.6493C22.1009 71.1074 22.9577 72.4085 24.2141 73.1837C25.4662 73.9563 27.0204 74.1395 28.4197 73.6866C28.6442 75.1446 29.5007 76.4456 30.7572 77.2209C32.0131 77.9959 33.5593 78.1783 34.963 77.7252C35.1879 79.1826 36.0442 80.4831 37.3003 81.2581C39.126 82.3845 41.5424 82.2162 43.188 80.8369C43.6028 80.4892 43.9598 80.0742 44.2439 79.6136L45.0634 78.2856L45.7382 78.7001C47.5662 79.8233 49.982 79.6503 51.625 78.268C52.0392 77.9195 52.3954 77.5039 52.6787 77.0428C53.2418 76.1262 53.4748 75.099 53.4133 74.099C53.7948 74.1907 54.1853 74.2401 54.5793 74.2401C56.324 74.2401 57.9744 73.32 58.8875 71.834C59.4375 70.9388 59.6887 69.9181 59.625 68.8907C60.0055 68.982 60.3952 69.031 60.7879 69.031C62.5326 69.031 64.1832 68.1109 65.0961 66.625C65.6466 65.729 65.8977 64.7077 65.8335 63.6795C66.2182 63.7711 66.6088 63.819 66.9976 63.819C68.6943 63.819 70.3534 62.9647 71.3049 61.4162C72.7613 59.0457 72.0179 55.9324 69.6474 54.476L68.8242 53.9702L71.5852 51.0855L74.1677 53.6336C74.6206 54.0802 75.3671 54.0902 75.8317 53.6561L81.5446 48.317C82.0291 47.8639 82.0547 47.1037 81.6016 46.6189ZM22.5697 66.2403C21.8043 67.4803 20.1728 67.8667 18.9325 67.1017C17.6923 66.3365 17.306 64.705 18.071 63.4648L24.7998 52.5596C25.5508 51.3424 27.1623 50.9444 28.3928 51.6713C29.666 52.4241 30.0174 54.1696 29.253 55.4087L22.5697 66.2403ZM29.1125 70.2775C28.3474 71.5176 26.7158 71.904 25.4757 71.139C24.2505 70.3829 23.857 68.7291 24.6142 67.502L29.9971 58.7778C30.748 57.5608 32.3595 57.1626 33.59 57.8896C34.8632 58.6423 35.2146 60.3878 34.45 61.627L29.1125 70.2775ZM35.6562 74.3147C35.2853 74.9154 34.7026 75.336 34.0159 75.4987C33.3286 75.6616 32.6196 75.5468 32.0189 75.1762C30.7938 74.4201 30.4003 72.7662 31.1575 71.5392L35.1948 64.996C35.9457 63.7788 37.5574 63.3808 38.7877 64.1078C40.061 64.8605 40.4123 66.6061 39.6479 67.8452L35.6562 74.3147ZM44.8453 74.0637L42.1992 78.3521C41.4431 79.5773 39.7893 79.9705 38.5621 79.2134C37.337 78.4575 36.9437 76.8034 37.7007 75.5764L40.3922 71.2144C41.1431 69.9975 42.7548 69.5989 43.9851 70.3263C45.2583 71.0789 45.6097 72.8246 44.8453 74.0637ZM66.7297 52.6832L60.7748 49.0241C60.2225 48.6847 59.4616 48.8665 59.1224 49.4187C58.7831 49.971 58.9648 50.7318 59.5171 51.0711L68.3892 56.5226C69.6308 57.2856 70.0203 58.9163 69.2574 60.158C68.4945 61.3995 66.8636 61.789 65.6219 61.0262L56.1065 55.1792C55.5413 54.8317 54.8014 55.0087 54.4542 55.5739C54.107 56.139 54.2836 56.879 54.8488 57.2262L62.1808 61.7314C63.4074 62.4851 63.8038 64.1384 63.049 65.3668C62.2953 66.5934 60.642 66.9896 59.4136 66.235L52.769 62.1521C52.2037 61.8047 51.4639 61.9815 51.1167 62.5467C50.7695 63.1119 50.9461 63.8518 51.5113 64.1991L55.9723 66.9401C57.1988 67.694 57.5953 69.347 56.8405 70.5755C56.0868 71.802 54.4335 72.1986 53.2051 71.4437C53.2051 71.4437 49.282 69.0355 49.2453 69.0179C48.6967 68.753 48.026 68.9415 47.7006 69.4713C47.3534 70.0364 47.53 70.7764 48.0952 71.1236L49.7639 72.1489C51.0054 72.9119 51.3947 74.5426 50.6319 75.7843C49.8782 77.0109 48.2249 77.4072 46.9965 76.6525L46.3258 76.2403L46.8907 75.3246C47.6128 74.1542 47.8369 72.7128 47.5053 71.3701C47.1783 70.0449 46.3625 68.9395 45.2085 68.2574C44.3081 67.7254 43.3009 67.5098 42.3201 67.576C42.5043 66.7848 42.5053 65.951 42.3079 65.1517C41.9809 63.8265 41.1651 62.7211 40.0111 62.039C39.1107 61.5068 38.1035 61.2913 37.1227 61.3574C37.6181 59.2293 36.7062 56.9395 34.8138 55.8207C33.9134 55.2886 32.9061 55.073 31.9253 55.139C32.4207 53.0109 31.5088 50.7211 29.6164 49.6023C27.267 48.2136 24.1896 48.9741 22.7562 51.297L17.8058 59.3202L12.7516 56.489L20.237 37.3596L24.3126 38.0789C23.1534 39.5187 22.8275 41.5458 23.6443 43.3397C24.4896 45.1956 26.326 46.2938 28.2437 46.2936C28.9421 46.2936 29.6514 46.1479 30.3275 45.84L37.3628 42.6356C37.9586 42.3643 38.2296 41.6403 37.9581 41.0445C37.6868 40.4489 36.9627 40.1776 36.367 40.4492L29.3314 43.6534C28.0055 44.2575 26.4349 43.6699 25.8308 42.3437C25.2268 41.0174 25.8143 39.4471 27.1405 38.843L38.3985 33.7156L51.7905 34.8689C51.8249 34.8719 51.8593 34.8733 51.8936 34.8733C52.1851 34.8733 52.4681 34.7672 52.6886 34.5727L53.8286 33.5661L69.874 49.3974L66.7297 52.6832Z" fill="url(#paint0_linear)"/>
<defs>
<linearGradient id="paint0_linear" x1="-2.51917" y1="87.4067" x2="97.8724" y2="45.564" gradientUnits="userSpaceOnUse">
<stop stop-color="#E9B965"/>
<stop offset="1" stop-color="#F3CC88"/>
</linearGradient>
</defs>
</svg>
