<svg width="82" height="82" viewBox="0 0 82 82" fill="none" xmlns="http://www.w3.org/2000/svg">
<g clip-path="url(#clip0)">
<mask id="path-1-inside-1" fill="white">
<path d="M25.4056 32.9845C26.5589 33.4522 27.5667 34.0333 28.3885 34.7006V30.5965C28.3885 29.0984 29.0829 27.7228 30.2998 26.5652C31.185 25.7253 32.3517 24.9989 33.7185 24.4314C33.2462 23.4144 32.9827 22.2794 32.9827 21.0901V13.7811C32.9827 12.401 33.5458 11.1479 34.4582 10.24C35.3663 9.3276 36.6194 8.76465 37.9994 8.76465H44.0056C45.3857 8.76465 46.6387 9.3276 47.5513 10.24C48.4594 11.1479 49.0222 12.401 49.0222 13.7811V21.0902C49.0222 22.2797 48.759 23.4148 48.2867 24.4362C49.6444 24.9992 50.802 25.7119 51.6782 26.5381C52.9132 27.7049 53.6214 29.0896 53.6214 30.5968V34.7054C54.4431 34.0336 55.4553 33.4524 56.6131 32.9802C56.1454 31.9632 55.8825 30.8329 55.8825 29.648V22.3387C55.8825 20.9586 56.4499 19.7055 57.358 18.7976C58.2657 17.885 59.5188 17.3223 60.9033 17.3223H66.9053C68.2854 17.3223 69.543 17.8852 70.451 18.7976C71.3588 19.7057 71.9219 20.9586 71.9219 22.3387V29.6479C71.9219 30.8327 71.6633 31.9631 71.1956 32.9756C72.5891 33.5477 73.7788 34.2831 74.6774 35.1321C75.8943 36.2897 76.589 37.6608 76.589 39.1544V47.9753H80.8019C81.4648 47.9753 82.0005 48.5157 82.0005 49.1784C82.0005 49.4644 81.9007 49.7277 81.7327 49.9321L77.3288 56.3423L81.7872 62.8253C82.164 63.3701 82.0234 64.1147 81.4832 64.4914C81.283 64.6275 81.0425 64.7049 80.8019 64.7049H54.5021L54.9468 70.416C55.0013 71.1379 54.7561 71.8142 54.316 72.3227C53.5395 73.2261 52.2592 73.4894 51.1923 72.9764L41.0049 68.768L30.6673 73.0355C29.5826 73.4805 28.3339 73.1489 27.6122 72.2274C27.2171 71.7189 27.0129 71.056 27.0582 70.416L27.5033 64.7049H18.9093C18.2464 64.7049 17.7107 64.1692 17.7107 63.5063C17.7107 62.8435 18.2466 62.3032 18.9093 62.3032H27.6894L27.9253 59.266L20.739 50.8309C20.6163 50.7084 20.4938 50.5268 20.4074 50.377H3.48279L7.10536 55.6432C7.39156 56.0427 7.40966 56.592 7.11449 57.0233L3.48279 62.3032H13.4703C14.1332 62.3032 14.6689 62.8435 14.6689 63.5063C14.6689 64.1692 14.133 64.7049 13.4703 64.7049H1.20361C0.540729 64.7049 0.00500731 64.1692 0.00500731 63.5063C0.00500731 63.2202 0.104784 62.9569 0.272788 62.7481L4.67676 56.3422L0.218335 49.8592C-0.353742 49.0285 0.272788 47.9751 1.2491 47.9751H5.44855V41.8782C5.44855 41.2154 5.98411 40.6751 6.64683 40.6751C7.30956 40.6751 7.84993 41.2154 7.84993 41.8782V47.9751H20.2896C20.4395 47.6483 20.7481 47.2216 21.0612 47.0036C21.3972 46.7403 21.7921 46.586 22.2052 46.4862L28.3886 44.9926V39.1542C28.3886 38.3463 27.9573 37.5562 27.2038 36.848C26.4365 36.1262 25.3561 35.4996 24.0529 35.0275C22.5321 36.7026 20.3893 37.6651 18.1193 37.6651C15.8492 37.6651 13.7065 36.7026 12.181 35.0275C10.8826 35.4996 9.42986 36.2668 8.55381 37.3655C8.13628 37.8784 7.38275 37.9601 6.86961 37.5471C6.35199 37.1339 6.27031 36.3803 6.68351 35.8627C7.73669 34.5507 9.28476 33.6156 10.8282 32.9799C10.3605 31.9629 10.0976 30.8325 10.0976 29.6477V24.5403V22.3387C10.0976 20.9586 10.665 19.7055 11.5728 18.7976C12.4808 17.885 13.7339 17.3223 15.1184 17.3223H24.9382C25.6011 17.3223 26.1369 17.8625 26.1369 18.5254V24.5406V29.648C26.1367 30.8373 25.8732 31.9677 25.4056 32.9845ZM69.5199 27.6821L62.7373 25.385L58.2883 27.5687V29.6479C58.2883 31.1914 58.9192 32.5943 59.9362 33.6112C60.9578 34.6327 62.3604 35.2637 63.904 35.2637C65.4478 35.2637 66.8504 34.6327 67.8672 33.6112C68.8889 32.5943 69.5197 31.1914 69.5197 29.6479V27.6821H69.5199ZM58.2883 24.9037L62.0608 23.056C62.347 22.888 62.7054 22.8427 63.0414 22.9561L69.5199 25.1488V22.3387C69.5199 21.6213 69.2249 20.9676 68.7529 20.4954C68.2761 20.0188 67.6224 19.7236 66.9052 19.7236H60.9032C60.1815 19.7236 59.5321 20.0188 59.0558 20.4954C58.579 20.9676 58.2885 21.6213 58.2885 22.3387V24.9037H58.2883ZM12.4988 23.342H23.735V19.7238H15.1181C14.3965 19.7238 13.7427 20.019 13.2704 20.4956C12.7939 20.9677 12.4988 21.6215 12.4988 22.3388V23.342ZM23.735 25.7436H12.4988V29.6479C12.4988 31.1914 13.1344 32.5943 14.1513 33.6112C15.1729 34.6327 16.5755 35.2637 18.1191 35.2637C19.6627 35.2637 21.0657 34.6327 22.0827 33.6112C23.104 32.5943 23.7348 31.1914 23.7348 29.6479V25.7436H23.735ZM46.6206 18.9384C44.8136 19.2153 41.8084 19.2153 39.3295 17.0044C38.4671 17.5128 37.0779 18.0939 35.3844 17.935V21.0902C35.3844 22.6338 36.0201 24.0366 37.0369 25.0536C38.0539 26.0751 39.4612 26.7061 41.0048 26.7061C42.5482 26.7061 43.9512 26.0751 44.968 25.0536C45.9893 24.0366 46.6205 22.6338 46.6205 21.0902V18.9384H46.6206ZM35.3844 15.5199C36.5377 15.7015 37.8133 15.311 38.6847 14.5347C39.1843 14.1034 39.9378 14.1579 40.3736 14.6573C42.4122 17.0044 45.2495 16.7957 46.6206 16.5141V13.7811C46.6206 13.0637 46.3253 12.41 45.849 11.9378C45.3767 11.4612 44.7229 11.166 44.0056 11.166H37.9994C37.2821 11.166 36.6283 11.4612 36.156 11.9378C35.6796 12.41 35.3844 13.0637 35.3844 13.7811V15.5199ZM57.9658 35.023C56.631 35.5088 55.528 36.1536 54.7518 36.8935C54.0298 37.5881 53.6212 38.3643 53.6212 39.1542V44.9926L59.9499 46.5225C60.649 46.6905 61.2209 47.1308 61.5659 47.7029C61.6207 47.7892 61.6703 47.8799 61.7158 47.9753H74.187V39.1544C74.187 38.3554 73.7647 37.57 73.0249 36.8709C72.2576 36.1401 71.1634 35.5089 69.8378 35.0278C69.7515 35.1231 69.6608 35.2184 69.57 35.3092C68.1174 36.762 66.1106 37.6654 63.9042 37.6654C61.6977 37.6654 59.691 36.762 58.2383 35.3092C58.1429 35.2182 58.0521 35.1229 57.9658 35.023ZM35.0756 26.479C33.7819 26.9556 32.7101 27.5822 31.9523 28.304C31.2122 29.0077 30.7899 29.7931 30.7899 30.5966V39.1542V44.4158L32.9145 43.9029L38.7667 34.3737C39.1481 33.7563 39.7427 33.3523 40.3965 33.1934C41.5088 32.9301 42.6665 33.4203 43.2521 34.3918L49.095 43.9029L51.2152 44.4158V39.1542V30.5966C51.2152 29.784 50.7885 28.9941 50.0347 28.2859C49.2768 27.5686 48.2095 26.9512 46.9294 26.4745C45.4086 28.1498 43.2702 29.1077 41.0049 29.1077C38.7397 29.1077 36.6013 28.1498 35.0756 26.479ZM61.6024 50.3768C61.5204 50.513 61.4298 50.6446 61.3209 50.7673L59.3051 53.1371C58.8738 53.6411 58.1203 53.6956 57.6163 53.2688C57.1123 52.8375 57.0532 52.0793 57.4846 51.5799L59.5004 49.2101C59.55 49.151 59.5638 49.0648 59.5411 48.9921C59.5185 48.9194 59.4594 48.8651 59.3868 48.8469C55.6323 47.9434 51.887 47.04 48.1368 46.1321C47.8008 46.0821 47.4968 45.8869 47.3059 45.5783L41.2043 35.6495C41.159 35.5724 41.1045 35.5269 41.0048 35.5269C40.9276 35.5224 40.8549 35.5632 40.814 35.6313L34.7034 45.5781C34.5401 45.8369 34.2811 46.0366 33.959 46.1138C30.2272 47.0128 26.4999 47.9117 22.7681 48.815C22.6546 48.8469 22.5367 48.8469 22.4776 48.9649C22.4369 49.0421 22.4461 49.1465 22.5048 49.2101L30.0275 58.0401C30.2546 58.2762 30.3816 58.6031 30.3544 58.9572C30.0547 62.8343 29.7551 66.7158 29.451 70.5973C29.4463 70.6654 29.4782 70.7381 29.5326 70.7834C29.5961 70.8334 29.6869 70.8515 29.7597 70.8198L40.5466 66.3662C40.8281 66.2481 41.155 66.2392 41.459 66.3662L52.1143 70.7653C52.2913 70.8289 52.5773 70.9106 52.5544 70.5973C52.2548 66.7158 51.9506 62.8343 51.651 58.9572C51.6284 58.6529 51.7235 58.3398 51.9372 58.0856L53.9572 55.7203C54.3839 55.2164 55.142 55.1573 55.6461 55.5886C56.1453 56.0199 56.2044 56.7735 55.7777 57.2775L54.0842 59.2658L54.316 62.303H78.5224L74.8998 57.0368C74.6136 56.6418 74.5955 56.088 74.8907 55.6612L78.5224 50.3768H61.6024Z"/>
</mask>
<path d="M25.4056 32.9845C26.5589 33.4522 27.5667 34.0333 28.3885 34.7006V30.5965C28.3885 29.0984 29.0829 27.7228 30.2998 26.5652C31.185 25.7253 32.3517 24.9989 33.7185 24.4314C33.2462 23.4144 32.9827 22.2794 32.9827 21.0901V13.7811C32.9827 12.401 33.5458 11.1479 34.4582 10.24C35.3663 9.3276 36.6194 8.76465 37.9994 8.76465H44.0056C45.3857 8.76465 46.6387 9.3276 47.5513 10.24C48.4594 11.1479 49.0222 12.401 49.0222 13.7811V21.0902C49.0222 22.2797 48.759 23.4148 48.2867 24.4362C49.6444 24.9992 50.802 25.7119 51.6782 26.5381C52.9132 27.7049 53.6214 29.0896 53.6214 30.5968V34.7054C54.4431 34.0336 55.4553 33.4524 56.6131 32.9802C56.1454 31.9632 55.8825 30.8329 55.8825 29.648V22.3387C55.8825 20.9586 56.4499 19.7055 57.358 18.7976C58.2657 17.885 59.5188 17.3223 60.9033 17.3223H66.9053C68.2854 17.3223 69.543 17.8852 70.451 18.7976C71.3588 19.7057 71.9219 20.9586 71.9219 22.3387V29.6479C71.9219 30.8327 71.6633 31.9631 71.1956 32.9756C72.5891 33.5477 73.7788 34.2831 74.6774 35.1321C75.8943 36.2897 76.589 37.6608 76.589 39.1544V47.9753H80.8019C81.4648 47.9753 82.0005 48.5157 82.0005 49.1784C82.0005 49.4644 81.9007 49.7277 81.7327 49.9321L77.3288 56.3423L81.7872 62.8253C82.164 63.3701 82.0234 64.1147 81.4832 64.4914C81.283 64.6275 81.0425 64.7049 80.8019 64.7049H54.5021L54.9468 70.416C55.0013 71.1379 54.7561 71.8142 54.316 72.3227C53.5395 73.2261 52.2592 73.4894 51.1923 72.9764L41.0049 68.768L30.6673 73.0355C29.5826 73.4805 28.3339 73.1489 27.6122 72.2274C27.2171 71.7189 27.0129 71.056 27.0582 70.416L27.5033 64.7049H18.9093C18.2464 64.7049 17.7107 64.1692 17.7107 63.5063C17.7107 62.8435 18.2466 62.3032 18.9093 62.3032H27.6894L27.9253 59.266L20.739 50.8309C20.6163 50.7084 20.4938 50.5268 20.4074 50.377H3.48279L7.10536 55.6432C7.39156 56.0427 7.40966 56.592 7.11449 57.0233L3.48279 62.3032H13.4703C14.1332 62.3032 14.6689 62.8435 14.6689 63.5063C14.6689 64.1692 14.133 64.7049 13.4703 64.7049H1.20361C0.540729 64.7049 0.00500731 64.1692 0.00500731 63.5063C0.00500731 63.2202 0.104784 62.9569 0.272788 62.7481L4.67676 56.3422L0.218335 49.8592C-0.353742 49.0285 0.272788 47.9751 1.2491 47.9751H5.44855V41.8782C5.44855 41.2154 5.98411 40.6751 6.64683 40.6751C7.30956 40.6751 7.84993 41.2154 7.84993 41.8782V47.9751H20.2896C20.4395 47.6483 20.7481 47.2216 21.0612 47.0036C21.3972 46.7403 21.7921 46.586 22.2052 46.4862L28.3886 44.9926V39.1542C28.3886 38.3463 27.9573 37.5562 27.2038 36.848C26.4365 36.1262 25.3561 35.4996 24.0529 35.0275C22.5321 36.7026 20.3893 37.6651 18.1193 37.6651C15.8492 37.6651 13.7065 36.7026 12.181 35.0275C10.8826 35.4996 9.42986 36.2668 8.55381 37.3655C8.13628 37.8784 7.38275 37.9601 6.86961 37.5471C6.35199 37.1339 6.27031 36.3803 6.68351 35.8627C7.73669 34.5507 9.28476 33.6156 10.8282 32.9799C10.3605 31.9629 10.0976 30.8325 10.0976 29.6477V24.5403V22.3387C10.0976 20.9586 10.665 19.7055 11.5728 18.7976C12.4808 17.885 13.7339 17.3223 15.1184 17.3223H24.9382C25.6011 17.3223 26.1369 17.8625 26.1369 18.5254V24.5406V29.648C26.1367 30.8373 25.8732 31.9677 25.4056 32.9845ZM69.5199 27.6821L62.7373 25.385L58.2883 27.5687V29.6479C58.2883 31.1914 58.9192 32.5943 59.9362 33.6112C60.9578 34.6327 62.3604 35.2637 63.904 35.2637C65.4478 35.2637 66.8504 34.6327 67.8672 33.6112C68.8889 32.5943 69.5197 31.1914 69.5197 29.6479V27.6821H69.5199ZM58.2883 24.9037L62.0608 23.056C62.347 22.888 62.7054 22.8427 63.0414 22.9561L69.5199 25.1488V22.3387C69.5199 21.6213 69.2249 20.9676 68.7529 20.4954C68.2761 20.0188 67.6224 19.7236 66.9052 19.7236H60.9032C60.1815 19.7236 59.5321 20.0188 59.0558 20.4954C58.579 20.9676 58.2885 21.6213 58.2885 22.3387V24.9037H58.2883ZM12.4988 23.342H23.735V19.7238H15.1181C14.3965 19.7238 13.7427 20.019 13.2704 20.4956C12.7939 20.9677 12.4988 21.6215 12.4988 22.3388V23.342ZM23.735 25.7436H12.4988V29.6479C12.4988 31.1914 13.1344 32.5943 14.1513 33.6112C15.1729 34.6327 16.5755 35.2637 18.1191 35.2637C19.6627 35.2637 21.0657 34.6327 22.0827 33.6112C23.104 32.5943 23.7348 31.1914 23.7348 29.6479V25.7436H23.735ZM46.6206 18.9384C44.8136 19.2153 41.8084 19.2153 39.3295 17.0044C38.4671 17.5128 37.0779 18.0939 35.3844 17.935V21.0902C35.3844 22.6338 36.0201 24.0366 37.0369 25.0536C38.0539 26.0751 39.4612 26.7061 41.0048 26.7061C42.5482 26.7061 43.9512 26.0751 44.968 25.0536C45.9893 24.0366 46.6205 22.6338 46.6205 21.0902V18.9384H46.6206ZM35.3844 15.5199C36.5377 15.7015 37.8133 15.311 38.6847 14.5347C39.1843 14.1034 39.9378 14.1579 40.3736 14.6573C42.4122 17.0044 45.2495 16.7957 46.6206 16.5141V13.7811C46.6206 13.0637 46.3253 12.41 45.849 11.9378C45.3767 11.4612 44.7229 11.166 44.0056 11.166H37.9994C37.2821 11.166 36.6283 11.4612 36.156 11.9378C35.6796 12.41 35.3844 13.0637 35.3844 13.7811V15.5199ZM57.9658 35.023C56.631 35.5088 55.528 36.1536 54.7518 36.8935C54.0298 37.5881 53.6212 38.3643 53.6212 39.1542V44.9926L59.9499 46.5225C60.649 46.6905 61.2209 47.1308 61.5659 47.7029C61.6207 47.7892 61.6703 47.8799 61.7158 47.9753H74.187V39.1544C74.187 38.3554 73.7647 37.57 73.0249 36.8709C72.2576 36.1401 71.1634 35.5089 69.8378 35.0278C69.7515 35.1231 69.6608 35.2184 69.57 35.3092C68.1174 36.762 66.1106 37.6654 63.9042 37.6654C61.6977 37.6654 59.691 36.762 58.2383 35.3092C58.1429 35.2182 58.0521 35.1229 57.9658 35.023ZM35.0756 26.479C33.7819 26.9556 32.7101 27.5822 31.9523 28.304C31.2122 29.0077 30.7899 29.7931 30.7899 30.5966V39.1542V44.4158L32.9145 43.9029L38.7667 34.3737C39.1481 33.7563 39.7427 33.3523 40.3965 33.1934C41.5088 32.9301 42.6665 33.4203 43.2521 34.3918L49.095 43.9029L51.2152 44.4158V39.1542V30.5966C51.2152 29.784 50.7885 28.9941 50.0347 28.2859C49.2768 27.5686 48.2095 26.9512 46.9294 26.4745C45.4086 28.1498 43.2702 29.1077 41.0049 29.1077C38.7397 29.1077 36.6013 28.1498 35.0756 26.479ZM61.6024 50.3768C61.5204 50.513 61.4298 50.6446 61.3209 50.7673L59.3051 53.1371C58.8738 53.6411 58.1203 53.6956 57.6163 53.2688C57.1123 52.8375 57.0532 52.0793 57.4846 51.5799L59.5004 49.2101C59.55 49.151 59.5638 49.0648 59.5411 48.9921C59.5185 48.9194 59.4594 48.8651 59.3868 48.8469C55.6323 47.9434 51.887 47.04 48.1368 46.1321C47.8008 46.0821 47.4968 45.8869 47.3059 45.5783L41.2043 35.6495C41.159 35.5724 41.1045 35.5269 41.0048 35.5269C40.9276 35.5224 40.8549 35.5632 40.814 35.6313L34.7034 45.5781C34.5401 45.8369 34.2811 46.0366 33.959 46.1138C30.2272 47.0128 26.4999 47.9117 22.7681 48.815C22.6546 48.8469 22.5367 48.8469 22.4776 48.9649C22.4369 49.0421 22.4461 49.1465 22.5048 49.2101L30.0275 58.0401C30.2546 58.2762 30.3816 58.6031 30.3544 58.9572C30.0547 62.8343 29.7551 66.7158 29.451 70.5973C29.4463 70.6654 29.4782 70.7381 29.5326 70.7834C29.5961 70.8334 29.6869 70.8515 29.7597 70.8198L40.5466 66.3662C40.8281 66.2481 41.155 66.2392 41.459 66.3662L52.1143 70.7653C52.2913 70.8289 52.5773 70.9106 52.5544 70.5973C52.2548 66.7158 51.9506 62.8343 51.651 58.9572C51.6284 58.6529 51.7235 58.3398 51.9372 58.0856L53.9572 55.7203C54.3839 55.2164 55.142 55.1573 55.6461 55.5886C56.1453 56.0199 56.2044 56.7735 55.7777 57.2775L54.0842 59.2658L54.316 62.303H78.5224L74.8998 57.0368C74.6136 56.6418 74.5955 56.088 74.8907 55.6612L78.5224 50.3768H61.6024Z" fill="#E9B965" stroke="#EDEDED" stroke-width="0.4" mask="url(#path-1-inside-1)"/>
</g>
<defs>
<clipPath id="clip0">
<rect width="82" height="82" fill="white"/>
</clipPath>
</defs>
</svg>
