<svg width="82" height="82" viewBox="0 0 82 82" fill="none" xmlns="http://www.w3.org/2000/svg">
<path d="M8.47893 29.2451V29.1951H8.42893H7.13279C6.48823 29.1951 5.96576 28.6726 5.96576 28.0281C5.96576 27.3835 6.48823 26.861 7.13279 26.861H8.42893H8.47893V26.811V25.5149C8.47893 24.8703 9.0014 24.3479 9.64596 24.3479C10.2905 24.3479 10.813 24.8703 10.813 25.5149V26.811V26.861H10.863H12.1591C12.8037 26.861 13.3262 27.3835 13.3262 28.0281C13.3262 28.6726 12.8037 29.1951 12.1591 29.1951H10.863H10.813V29.2451V30.5412C10.813 31.1858 10.2905 31.7082 9.64596 31.7082C9.0014 31.7082 8.47893 31.1858 8.47893 30.5412V29.2451Z" fill="#E9B965" stroke="#EDEDED" stroke-width="0.1"/>
<path d="M73.5962 36.7589H73.6462V36.7089V35.4126C73.6462 34.768 74.1686 34.2456 74.8132 34.2456C75.4578 34.2456 75.9802 34.768 75.9802 35.4126V36.7089V36.7589H76.0302H77.3264C77.9709 36.7589 78.4934 37.2814 78.4934 37.9259C78.4934 38.5705 77.9709 39.0929 77.3264 39.0929H76.0302H75.9802V39.1429V40.4391C75.9802 41.0836 75.4578 41.6061 74.8132 41.6061C74.1687 41.6061 73.6462 41.0836 73.6462 40.4391V39.1429V39.0929H73.5962H72.3C71.6555 39.0929 71.133 38.5705 71.133 37.9259C71.133 37.2814 71.6555 36.7589 72.3 36.7589H73.5962Z" fill="#E9B965" stroke="#EDEDED" stroke-width="0.1"/>
<path d="M57.7184 4.94712V4.89712H57.6684H56.3723C55.7277 4.89712 55.2053 4.3748 55.2053 3.73025C55.2053 3.08569 55.7277 2.56322 56.3723 2.56322H57.6684H57.7184V2.51322V1.21708C57.7184 0.572515 58.2409 0.0500488 58.8855 0.0500488C59.53 0.0500488 60.0525 0.572515 60.0525 1.21708V2.51306V2.56306H60.1025H61.3986C62.0432 2.56306 62.5657 3.08553 62.5657 3.73009C62.5657 4.37465 62.0432 4.89712 61.3986 4.89712H60.1025H60.0525V4.94712V6.24326C60.0525 6.88782 59.53 7.41029 58.8855 7.41029C58.2409 7.41029 57.7184 6.88782 57.7184 6.24326V4.94712Z" fill="#E9B965" stroke="#EDEDED" stroke-width="0.1"/>
<path fill-rule="evenodd" clip-rule="evenodd" d="M28.1927 39.5147L28.1437 39.5358C26.5587 40.2175 25.446 41.7939 25.446 43.6256C25.446 46.0793 27.4423 48.0755 29.8958 48.0755H60.2763C62.7298 48.0755 64.726 46.0791 64.726 43.6256C64.726 41.7939 63.6134 40.2177 62.0285 39.5359L61.9796 39.5149L62.0037 39.4674L64.7009 34.1502C64.9925 33.5755 64.7629 32.8732 64.1881 32.5816C63.6137 32.2901 62.9111 32.5194 62.6193 33.0944L59.5483 39.1484L59.5344 39.1758H59.5037H30.6685H30.6378L30.6239 39.1484L30.3384 38.5855L22.1688 22.4801L21.7116 21.5788L21.6885 21.5334L21.7344 21.5112C22.1825 21.2945 22.5952 21.0154 22.9617 20.6862L22.9954 20.6559L23.0288 20.6865L25.5024 22.9454L32.124 28.9922C33.3497 30.1117 35.2982 29.8195 36.1396 28.384L38.2817 24.7291L42.0133 18.3624C42.607 17.3496 42.4487 16.0557 41.6286 15.2161L39.7575 13.3003C39.6608 13.2013 39.6518 13.0443 39.7368 12.9349L44.9992 6.15721C45.0027 6.1527 45.0117 6.14072 45.0269 6.13096C45.0429 6.12071 45.0625 6.11465 45.0861 6.11465C45.1097 6.11465 45.1294 6.12071 45.1453 6.13093C45.1597 6.14014 45.1686 6.15138 45.1723 6.15607L45.1732 6.15721L50.4356 12.9349C50.5206 13.0444 50.5116 13.2011 50.4149 13.3003L48.5439 15.2156C47.7238 16.0555 47.5656 17.3495 48.1591 18.3619L53.1034 26.7978L54.0058 28.3374L54.033 28.3838C54.8728 29.8163 56.82 30.1134 58.0484 28.9918L67.1437 20.6863L67.1771 20.6558L67.2108 20.686C67.5775 21.0153 67.99 21.2942 68.4382 21.511L68.484 21.5332L68.461 21.5787L65.2772 27.8552C64.9856 28.4299 65.2152 29.1322 65.79 29.4238C66.364 29.715 67.0666 29.4868 67.3588 28.911L70.8361 22.056L70.8496 22.0295L70.8792 22.0286C73.7062 21.9444 75.9804 19.6201 75.9804 16.7733C75.9804 13.8732 73.6209 11.5138 70.7209 11.5138C67.8208 11.5138 65.4614 13.8732 65.4614 16.7733C65.4614 17.4486 65.5907 18.094 65.8237 18.6876L65.8363 18.7196L65.8109 18.7428L56.4748 27.2684C56.4266 27.3124 56.3676 27.3362 56.3078 27.3407C56.2087 27.3481 56.1076 27.3027 56.0499 27.2091L56.0468 27.2038L50.1729 17.1818C50.1097 17.0738 50.1266 16.9359 50.2139 16.8465L52.0851 14.9308C52.9919 14.0022 53.0755 12.5284 52.2794 11.5033L47.0172 4.72556C46.5507 4.12483 45.8473 3.78027 45.0866 3.78027C44.3259 3.78027 43.6225 4.12483 43.156 4.72556L37.8936 11.5033C37.0977 12.5286 37.1813 14.0022 38.0882 14.9308L39.9594 16.8468C40.0468 16.9361 40.0635 17.074 40.0003 17.182L35.7813 24.3801L34.1265 27.2036C34.0359 27.3584 33.8284 27.3871 33.6984 27.2684L29.5891 23.5158L24.3623 18.7427L24.3369 18.7195L24.3495 18.6875C24.5824 18.0936 24.7117 17.4485 24.7117 16.7731C24.7117 13.8731 22.3522 11.5136 19.4522 11.5136C16.5521 11.5136 14.1923 13.8732 14.1923 16.7733C14.1923 19.6201 16.4666 21.9444 19.2935 22.0286L19.3523 22.087L28.1686 39.4672L28.1927 39.5147ZM70.7207 13.8477C72.3339 13.8477 73.6462 15.16 73.6462 16.7731C73.6462 18.3861 72.3339 19.6984 70.7207 19.6984C69.1076 19.6984 67.7953 18.3861 67.7953 16.7731C67.7953 15.16 69.1076 13.8477 70.7207 13.8477ZM60.2766 45.7414H29.8959C28.7293 45.7414 27.7802 44.7924 27.7802 43.6256C27.7802 42.4589 28.7293 41.5099 29.8959 41.5099H29.9176L29.9225 41.5101L29.9277 41.5099H60.2449L60.2501 41.5101L60.255 41.5099H60.2765C61.4431 41.5099 62.3922 42.4589 62.3922 43.6256C62.3923 44.7922 61.4433 45.7414 60.2766 45.7414ZM19.4518 13.8477C21.065 13.8477 22.3773 15.16 22.3773 16.7731C22.3773 18.3861 21.065 19.6984 19.4518 19.6984C17.8387 19.6984 16.5264 18.3861 16.5264 16.7731C16.5264 15.16 17.8387 13.8477 19.4518 13.8477Z" fill="#E9B965"/>
<path fill-rule="evenodd" clip-rule="evenodd" d="M78.2129 65.7858L78.2543 65.7595C78.2593 65.7563 78.2643 65.7531 78.2693 65.7499L78.281 65.8018L78.2129 65.7858Z" fill="#E9B965"/>
<path fill-rule="evenodd" clip-rule="evenodd" d="M72.4124 57.5986L72.4113 57.5992L62.3237 62.0409L52.6552 66.298L52.5845 66.3292L52.585 66.2519L52.5967 64.6455C52.597 64.604 52.5952 64.5627 52.5911 64.5217C52.3539 62.1372 51.0072 60.0918 49.058 58.9143C48.2219 58.4092 47.2749 58.0637 46.2572 57.9197L46.2431 57.9177L46.2271 57.9157L43.4788 57.5993L33.1553 56.4109L33.154 56.4107C30.6228 56.0501 29.2705 55.2529 27.0857 53.9648C26.8771 53.8418 26.661 53.7144 26.4355 53.5824C22.7263 51.4125 18.5022 50.2523 14.2072 50.2163L14.1576 50.2159V50.1663V49.4868C14.1576 47.6041 12.6259 46.0725 10.7433 46.0725H5.31943C3.43686 46.0725 1.90509 47.6041 1.90509 49.4868V53.4164C1.90509 54.061 2.42756 54.5834 3.07212 54.5834C3.71668 54.5834 4.23915 54.061 4.23915 53.4164V49.4868C4.23915 48.8911 4.72374 48.4065 5.31943 48.4065H10.7435C11.3391 48.4065 11.8237 48.8911 11.8237 49.4868V77.0055C11.8237 77.6012 11.3391 78.0858 10.7435 78.0858H5.31943C4.72374 78.0858 4.23915 77.6012 4.23915 77.0055V59.2911C4.23915 58.6465 3.71668 58.1241 3.07212 58.1241C2.42756 58.1241 1.90509 58.6465 1.90509 59.2911V77.0055C1.90509 78.8882 3.43686 80.4198 5.31943 80.4198H10.7435C12.626 80.4198 14.1578 78.8882 14.1578 77.0055V76.7198V76.6478L14.2252 76.6729L26.0095 81.0591C27.5978 81.6504 29.2627 81.9501 30.9577 81.9501H48.5877C51.2804 81.9501 53.9059 81.1884 56.1799 79.7471L78.2129 65.7858L78.2543 65.7595L78.2693 65.7499C78.3169 65.7187 78.3621 65.6842 78.4047 65.6464C80.2934 63.969 80.6463 61.129 79.2251 59.0407C78.4741 57.9368 77.4636 57.2519 76.2965 57.0043C75.1289 56.7566 73.8001 56.9458 72.4124 57.5986ZM76.8872 63.8035L76.9139 63.8457L75.0344 65.0366L54.9306 77.7756C53.0306 78.9796 50.8373 79.6161 48.5877 79.6161H30.9577C29.5416 79.6161 28.1507 79.3656 26.8238 78.8716L14.1904 74.1692L14.1578 74.1571V74.1224V52.6004V52.5499L14.2083 52.5504C18.0892 52.5865 21.9055 53.6364 25.2572 55.597C25.4456 55.7071 25.6288 55.8149 25.8078 55.9202L25.8684 55.9559C28.2258 57.3435 29.8522 58.3006 32.8433 58.7239L32.8522 58.7252L32.869 58.7273L32.8731 58.7278L45.944 60.2326L45.9454 60.2328C48.2398 60.5642 50.0055 62.3913 50.2621 64.691L50.2624 64.6969L50.2463 66.9074L50.246 66.957H50.1963H38.0411C37.3966 66.957 36.8741 67.4795 36.8741 68.124C36.8741 68.7686 37.3966 69.291 38.0411 69.291H51.4046C51.5533 69.291 51.7207 69.259 51.8703 69.1938L51.8726 69.1932L51.8748 69.1921L66.0966 62.9301L73.366 59.7293L73.3834 59.7214L73.3949 59.7161C73.9877 59.4357 74.6969 59.2063 75.3912 59.2414C75.948 59.2696 76.4933 59.4678 76.9589 59.941C77.0765 60.0605 77.1891 60.1976 77.2954 60.3539C77.7968 61.0904 77.8871 62.001 77.6026 62.7945C77.4637 63.1822 77.2352 63.5419 76.9216 63.8397L76.8872 63.8035Z" fill="#E9B965"/>
<path d="M46.2572 57.9197C46.2527 57.919 46.248 57.9183 46.2431 57.9177M46.2572 57.9197C47.2749 58.0637 48.2219 58.4092 49.058 58.9143C51.0072 60.0918 52.3539 62.1372 52.5911 64.5217C52.5952 64.5627 52.597 64.604 52.5967 64.6455L52.585 66.2519L52.5845 66.3292L52.6552 66.298L62.3237 62.0409L72.4113 57.5992L72.4124 57.5986C73.8001 56.9458 75.1289 56.7566 76.2965 57.0043C77.4636 57.2519 78.4741 57.9368 79.2251 59.0407C80.6463 61.129 80.2934 63.969 78.4047 65.6464C78.3621 65.6842 78.3169 65.7187 78.2693 65.7499M46.2572 57.9197L46.2431 57.9177M46.2271 57.9157L43.4788 57.5993L33.1553 56.4109L33.154 56.4107C30.6228 56.0501 29.2705 55.2529 27.0857 53.9648C26.8771 53.8418 26.661 53.7144 26.4355 53.5824C22.7263 51.4125 18.5022 50.2523 14.2072 50.2163L14.1576 50.2159V50.1663V49.4868C14.1576 47.6041 12.6259 46.0725 10.7433 46.0725H5.31943C3.43686 46.0725 1.90509 47.6041 1.90509 49.4868V53.4164C1.90509 54.061 2.42756 54.5834 3.07212 54.5834C3.71668 54.5834 4.23915 54.061 4.23915 53.4164V49.4868C4.23915 48.8911 4.72374 48.4065 5.31943 48.4065H10.7435C11.3391 48.4065 11.8237 48.8911 11.8237 49.4868V77.0055C11.8237 77.6012 11.3391 78.0858 10.7435 78.0858H5.31943C4.72374 78.0858 4.23915 77.6012 4.23915 77.0055V59.2911C4.23915 58.6465 3.71668 58.1241 3.07212 58.1241C2.42756 58.1241 1.90509 58.6465 1.90509 59.2911V77.0055C1.90509 78.8882 3.43686 80.4198 5.31943 80.4198H10.7435C12.626 80.4198 14.1578 78.8882 14.1578 77.0055V76.7198V76.6478L14.2252 76.6729L26.0095 81.0591C27.5978 81.6504 29.2627 81.9501 30.9577 81.9501H48.5877C51.2804 81.9501 53.9059 81.1884 56.1799 79.7471L78.2129 65.7858M46.2271 57.9157C46.2325 57.9164 46.2379 57.917 46.2431 57.9177M46.2271 57.9157L46.2431 57.9177M78.2543 65.7595L78.281 65.8018M78.2543 65.7595L78.2129 65.7858M78.2543 65.7595C78.2593 65.7563 78.2643 65.7531 78.2693 65.7499M78.2543 65.7595L78.2693 65.7499M78.281 65.8018L78.2693 65.7499M78.281 65.8018L78.2129 65.7858M73.3949 59.7161C73.9877 59.4357 74.6969 59.2063 75.3912 59.2414C75.948 59.2696 76.4933 59.4678 76.9589 59.941C77.0765 60.0605 77.1891 60.1976 77.2954 60.3539C77.7968 61.0904 77.8871 62.001 77.6026 62.7945C77.4637 63.1822 77.2352 63.5419 76.9216 63.8397L76.8872 63.8035L76.9139 63.8457L75.0344 65.0366L54.9306 77.7756C53.0306 78.9796 50.8373 79.6161 48.5877 79.6161H30.9577C29.5416 79.6161 28.1507 79.3656 26.8238 78.8716L14.1904 74.1692L14.1578 74.1571V74.1224V52.6004V52.5499L14.2083 52.5504C18.0892 52.5865 21.9055 53.6364 25.2572 55.597C25.4456 55.7071 25.6288 55.8149 25.8078 55.9202M73.3949 59.7161C73.3912 59.7179 73.3873 59.7197 73.3834 59.7214M73.3949 59.7161L73.3834 59.7214M73.3834 59.7214C73.3778 59.724 73.3721 59.7266 73.366 59.7293M73.3834 59.7214L73.366 59.7293M73.366 59.7293L66.0966 62.9301L51.8748 69.1921L51.8726 69.1932L51.8703 69.1938C51.7207 69.259 51.5533 69.291 51.4046 69.291H38.0411C37.3966 69.291 36.8741 68.7686 36.8741 68.124C36.8741 67.4795 37.3966 66.957 38.0411 66.957H50.1963H50.246L50.2463 66.9074L50.2624 64.6969L50.2621 64.691C50.0055 62.3913 48.2398 60.5642 45.9454 60.2328L45.944 60.2326L32.8731 58.7278L32.869 58.7273M32.8433 58.7239C29.8522 58.3006 28.2258 57.3435 25.8684 55.9559M32.8433 58.7239C32.8462 58.7243 32.8492 58.7248 32.8522 58.7252M32.8433 58.7239L32.8522 58.7252M25.8684 55.9559L25.8078 55.9202M25.8684 55.9559C25.8482 55.9441 25.828 55.9322 25.8078 55.9202M32.869 58.7273C32.8632 58.7266 32.8577 58.7259 32.8522 58.7252M32.869 58.7273L32.8522 58.7252" stroke="#EDEDED" stroke-width="0.1"/>
</svg>
