<svg width="18" height="18" viewBox="0 0 18 18" fill="none" xmlns="http://www.w3.org/2000/svg">
<path d="M9 0C5.36527 0 2.4082 2.95706 2.4082 6.5918C2.4082 7.94907 2.81788 9.25291 3.59202 10.3611L8.78298 17.8861C8.8322 17.9574 8.91334 18 9 18C9.08666 18 9.1678 17.9574 9.21702 17.8861L14.4071 10.3623C15.1821 9.25291 15.5918 7.94907 15.5918 6.5918C15.5918 2.95706 12.6347 0 9 0ZM13.9739 10.0616L9 17.272L4.02521 10.0603C3.31235 9.0399 2.93555 7.84051 2.93555 6.5918C2.93555 3.24784 5.65604 0.527344 9 0.527344C12.344 0.527344 15.0645 3.24784 15.0645 6.5918C15.0645 7.84051 14.6876 9.0399 13.9739 10.0616Z" fill="white" fill-opacity="0.7"/>
<path d="M9 2.10938C7.99432 2.10938 7.04387 2.43499 6.25138 3.05104C6.13642 3.1404 6.11568 3.30606 6.20504 3.42102C6.29441 3.53598 6.46007 3.55672 6.57503 3.46736C7.27411 2.92395 8.11262 2.63672 9 2.63672C11.1808 2.63672 12.9551 4.41095 12.9551 6.5918C12.9551 8.77264 11.1808 10.5469 9 10.5469C6.81915 10.5469 5.04492 8.77264 5.04492 6.5918C5.04492 5.70445 5.33215 4.86591 5.87556 4.16679C5.96493 4.05179 5.94418 3.88617 5.82922 3.7968C5.71423 3.70744 5.54864 3.72821 5.45924 3.84314C4.8432 4.63567 4.51758 5.58615 4.51758 6.5918C4.51758 9.06342 6.52837 11.0742 9 11.0742C11.4716 11.0742 13.4824 9.06342 13.4824 6.5918C13.4824 4.12017 11.4716 2.10938 9 2.10938Z" fill="white" fill-opacity="0.7"/>
<path fill-rule="evenodd" clip-rule="evenodd" d="M13.9739 10.0616L9 17.272L4.02521 10.0603C3.31235 9.0399 2.93555 7.84051 2.93555 6.5918C2.93555 3.24784 5.65604 0.527344 9 0.527344C12.344 0.527344 15.0645 3.24784 15.0645 6.5918C15.0645 7.84051 14.6876 9.0399 13.9739 10.0616ZM6.25138 3.05104C7.04387 2.43499 7.99432 2.10938 9 2.10938C11.4716 2.10938 13.4824 4.12017 13.4824 6.5918C13.4824 9.06342 11.4716 11.0742 9 11.0742C6.52837 11.0742 4.51758 9.06342 4.51758 6.5918C4.51758 5.58615 4.8432 4.63567 5.45924 3.84314C5.54864 3.72821 5.71423 3.70744 5.82922 3.7968C5.94418 3.88617 5.96493 4.05179 5.87556 4.16679L6.57503 3.46736C6.46007 3.55672 6.29441 3.53598 6.20504 3.42102C6.11568 3.30606 6.13642 3.1404 6.25138 3.05104Z" fill="white" fill-opacity="0.7"/>
</svg>
