<svg width="16" height="16" viewBox="0 0 16 16" fill="none" xmlns="http://www.w3.org/2000/svg">
<path d="M8 0C4.76912 0 2.14062 2.6285 2.14062 5.85938C2.14062 7.06584 2.50478 8.22481 3.19291 9.20984L7.80709 15.8987C7.85084 15.9621 7.92297 16 8 16C8.07703 16 8.14916 15.9621 8.19291 15.8987L12.8063 9.21097C13.4952 8.22481 13.8594 7.06584 13.8594 5.85938C13.8594 2.6285 11.2309 0 8 0ZM12.4213 8.94366L8 15.3529L3.57797 8.94253C2.94431 8.03547 2.60938 6.96934 2.60938 5.85938C2.60938 2.88697 5.02759 0.46875 8 0.46875C10.9724 0.46875 13.3906 2.88697 13.3906 5.85938C13.3906 6.96934 13.0557 8.03547 12.4213 8.94366Z" fill="#2D2D2D" fill-opacity="0.7"/>
<path d="M8 1.875C7.10606 1.875 6.26122 2.16444 5.55678 2.71203C5.45459 2.79147 5.43616 2.93872 5.51559 3.04091C5.59503 3.14309 5.74228 3.16153 5.84447 3.08209C6.46587 2.59906 7.21122 2.34375 8 2.34375C9.93853 2.34375 11.5156 3.92084 11.5156 5.85938C11.5156 7.79791 9.93853 9.375 8 9.375C6.06147 9.375 4.48438 7.79791 4.48438 5.85938C4.48438 5.07062 4.73969 4.32525 5.22272 3.70381C5.30216 3.60159 5.28372 3.45438 5.18153 3.37494C5.07931 3.2955 4.93213 3.31397 4.85266 3.41613C4.30506 4.12059 4.01562 4.96547 4.01562 5.85938C4.01562 8.05638 5.803 9.84375 8 9.84375C10.197 9.84375 11.9844 8.05638 11.9844 5.85938C11.9844 3.66237 10.197 1.875 8 1.875Z" fill="#2D2D2D" fill-opacity="0.7"/>
<path fill-rule="evenodd" clip-rule="evenodd" d="M12.4213 8.94366L8 15.3529L3.57797 8.94253C2.94431 8.03547 2.60938 6.96934 2.60938 5.85938C2.60938 2.88697 5.02759 0.46875 8 0.46875C10.9724 0.46875 13.3906 2.88697 13.3906 5.85938C13.3906 6.96934 13.0557 8.03547 12.4213 8.94366ZM5.55678 2.71203C6.26122 2.16444 7.10606 1.875 8 1.875C10.197 1.875 11.9844 3.66237 11.9844 5.85938C11.9844 8.05638 10.197 9.84375 8 9.84375C5.803 9.84375 4.01562 8.05638 4.01562 5.85938C4.01562 4.96547 4.30506 4.12059 4.85266 3.41613C4.93213 3.31397 5.07931 3.2955 5.18153 3.37494C5.28372 3.45438 5.30216 3.60159 5.22272 3.70381L5.84447 3.08209C5.74228 3.16153 5.59503 3.14309 5.51559 3.04091C5.43616 2.93872 5.45459 2.79147 5.55678 2.71203Z" fill="#2D2D2D" fill-opacity="0.7"/>
</svg>
