<svg width="131" height="156" viewBox="0 0 131 156" fill="none" xmlns="http://www.w3.org/2000/svg">
<path fill-rule="evenodd" clip-rule="evenodd" d="M0.0939026 111.126H14.5192C14.6106 111.632 14.6786 112.103 14.7243 112.539C14.77 112.977 14.7924 113.391 14.7924 113.781C14.7924 114.54 14.7019 115.448 14.5192 116.506H6.1441V120.713H12.7415C12.9466 121.747 13.0491 122.645 13.0491 123.404C13.0491 124.185 12.9466 125.093 12.7415 126.128H6.1441V135.819C4.9368 136.026 3.93376 136.129 3.13664 136.129C2.29301 136.129 1.27878 136.026 0.0939026 135.819V111.126ZM18.8558 123.611C18.8558 121.771 19.0673 120.064 19.4887 118.488C19.9101 116.914 20.5598 115.551 21.4371 114.402C22.3143 113.252 23.4311 112.35 24.7866 111.695C26.143 111.039 27.7549 110.712 29.6239 110.712C31.4922 110.712 33.0992 111.039 34.4436 111.695C35.7879 112.35 36.8991 113.252 37.7763 114.402C38.6536 115.551 39.3033 116.914 39.7247 118.488C40.1461 120.064 40.3576 121.771 40.3576 123.611C40.3576 125.449 40.1461 127.145 39.7247 128.697C39.3033 130.249 38.6536 131.594 37.7763 132.732C36.8991 133.87 35.7879 134.755 34.4436 135.388C33.0992 136.02 31.4922 136.336 29.6239 136.336C27.7549 136.336 26.143 136.02 24.7866 135.388C23.4311 134.755 22.3143 133.87 21.4371 132.732C20.5598 131.594 19.9101 130.249 19.4887 128.697C19.0673 127.145 18.8558 125.449 18.8558 123.611ZM33.9989 123.611C33.9989 118.598 32.5521 116.092 29.6576 116.092C26.6957 116.092 25.2144 118.598 25.2144 123.611C25.2144 126.116 25.5733 127.984 26.2912 129.214C27.009 130.445 28.1194 131.06 29.6239 131.06C32.5408 131.06 33.9989 128.577 33.9989 123.611ZM47.1897 111.194C47.668 111.126 48.1871 111.062 48.7455 111.005C49.3031 110.947 49.8223 110.919 50.3005 110.919C50.7564 110.919 51.2515 110.947 51.7875 111.005C52.3226 111.062 52.8185 111.126 53.2744 111.194L58.1284 124.024L63.1532 111.194C63.6091 111.126 64.0705 111.062 64.5376 111.005C65.0047 110.947 65.4661 110.919 65.922 110.919C66.4011 110.919 66.8905 110.947 67.392 111.005C67.8935 111.062 68.383 111.126 68.8621 111.194L70.0238 135.819C69.6593 135.888 69.2547 135.957 68.8109 136.026C68.3662 136.095 67.779 136.129 67.05 136.129C66.2528 136.129 65.3067 136.026 64.2131 135.819L63.734 121.541L59.9743 130.956C59.5641 131.025 59.1539 131.082 58.7437 131.128C58.3335 131.175 57.9578 131.197 57.6157 131.197C57.2737 131.197 56.9204 131.18 56.5558 131.145C56.1913 131.111 55.8156 131.048 55.4278 130.956L52.0783 121.679L51.7017 135.819C50.7452 136.026 49.8335 136.129 48.9674 136.129C48.1695 136.129 47.2466 136.026 46.1987 135.819L47.1897 111.194ZM79.5573 136.129C78.7138 136.129 77.6995 136.026 76.5146 135.819V111.194C77.1299 111.102 77.6883 111.034 78.1898 110.988C78.6913 110.941 79.1351 110.919 79.5229 110.919C79.9331 110.919 80.3946 110.941 80.9073 110.988C81.42 111.034 81.9728 111.102 82.5648 111.194V135.819C81.3575 136.026 80.3545 136.129 79.5573 136.129ZM95.0714 123.576C95.0714 128.45 97.0999 130.887 101.156 130.887C101.885 130.887 102.575 130.818 103.225 130.68C103.874 130.542 104.666 130.312 105.6 129.99C106.352 131.646 106.854 133.347 107.104 135.095C106.444 135.348 105.828 135.555 105.258 135.715C104.688 135.876 104.142 135.997 103.617 136.078C103.093 136.158 102.575 136.216 102.062 136.25C101.549 136.285 101.02 136.301 100.473 136.301C98.5356 136.301 96.8323 135.985 95.3622 135.353C93.8922 134.721 92.6616 133.842 91.6706 132.715C90.6788 131.588 89.9329 130.243 89.4314 128.68C88.9299 127.116 88.6791 125.415 88.6791 123.576C88.6791 121.736 88.9419 120.029 89.4659 118.454C89.9898 116.879 90.7477 115.517 91.7387 114.367C92.7305 113.218 93.9547 112.321 95.4135 111.677C96.8716 111.034 98.5243 110.712 100.37 110.712C101.464 110.712 102.5 110.792 103.481 110.953C104.461 111.114 105.554 111.436 106.762 111.919C106.717 112.861 106.546 113.775 106.25 114.66C105.953 115.545 105.646 116.321 105.327 116.988C104.871 116.827 104.455 116.689 104.079 116.574C103.703 116.46 103.344 116.368 103.002 116.299C102.661 116.23 102.319 116.178 101.976 116.144C101.635 116.109 101.27 116.092 100.883 116.092C99.0371 116.092 97.607 116.718 96.5928 117.971C95.5786 119.225 95.0714 121.093 95.0714 123.576ZM127.952 136.129C127.109 136.129 126.095 136.026 124.91 135.819V125.748H118.859V135.819C117.652 136.026 116.649 136.129 115.851 136.129C115.008 136.129 113.994 136.026 112.809 135.819V111.194C113.424 111.102 113.982 111.034 114.484 110.988C114.985 110.941 115.429 110.919 115.817 110.919C116.227 110.919 116.689 110.941 117.201 110.988C117.714 111.034 118.267 111.102 118.859 111.194V120.334H124.91V111.194C125.525 111.102 126.077 111.034 126.567 110.988C127.058 110.941 127.507 110.919 127.917 110.919C128.328 110.919 128.789 110.941 129.302 110.988C129.814 111.034 130.367 111.102 130.96 111.194V135.819C129.752 136.026 128.75 136.129 127.952 136.129Z" fill="#EDEDED"/>
<path fill-rule="evenodd" clip-rule="evenodd" d="M7.83435 155.892C7.39854 155.892 6.87376 155.839 6.26089 155.732V150.522H3.13084V155.732C2.50598 155.839 1.98684 155.892 1.57425 155.892C1.1384 155.892 0.613665 155.839 0 155.732V142.993C0.318855 142.945 0.60728 142.91 0.866849 142.885C1.12642 142.862 1.35635 142.85 1.55663 142.85C1.76894 142.85 2.00766 142.862 2.27282 142.885C2.53803 142.91 2.82401 142.945 3.13084 142.993V147.721H6.26089V142.993C6.57896 142.945 6.86498 142.91 7.11812 142.885C7.37209 142.862 7.60442 142.85 7.81673 142.85C8.02904 142.85 8.26776 142.862 8.53296 142.885C8.79813 142.91 9.08411 142.945 9.39098 142.993V155.732C8.76608 155.839 8.24694 155.892 7.83435 155.892ZM12.2478 149.416C12.2478 148.464 12.3568 147.582 12.5747 146.767C12.7934 145.952 13.1291 145.247 13.5833 144.652C14.0368 144.057 14.6144 143.59 15.3162 143.252C16.0172 142.913 16.852 142.743 17.8181 142.743C18.7851 142.743 19.6167 142.913 20.3121 143.252C21.0075 143.59 21.5819 144.057 22.0361 144.652C22.4904 145.247 22.8261 145.952 23.044 146.767C23.2619 147.582 23.3717 148.464 23.3717 149.416C23.3717 150.368 23.2619 151.245 23.044 152.047C22.8261 152.851 22.4904 153.547 22.0361 154.135C21.5819 154.724 21.0075 155.182 20.3121 155.509C19.6167 155.837 18.7851 156 17.8181 156C16.852 156 16.0172 155.837 15.3162 155.509C14.6144 155.182 14.0368 154.724 13.5833 154.135C13.1291 153.547 12.7934 152.851 12.5747 152.047C12.3568 151.245 12.2478 150.368 12.2478 149.416ZM20.0822 149.416C20.0822 146.823 19.3331 145.526 17.8358 145.526C16.3032 145.526 15.5373 146.823 15.5373 149.416C15.5373 150.713 15.7232 151.679 16.0941 152.316C16.4658 152.952 17.0403 153.27 17.8181 153.27C19.3275 153.27 20.0822 151.985 20.0822 149.416ZM28.0143 145.74H25.0613C24.9547 145.229 24.9019 144.759 24.9019 144.331C24.9019 143.939 24.9547 143.48 25.0613 142.957H34.0981C34.1446 143.219 34.1806 143.463 34.2039 143.689C34.2271 143.914 34.2391 144.129 34.2391 144.331C34.2391 144.723 34.1918 145.193 34.0981 145.74H31.1443V155.732C30.5194 155.839 30.0011 155.892 29.5885 155.892C29.1519 155.892 28.6271 155.839 28.0143 155.732V145.74ZM43.3385 149.095C43.3385 149.511 43.2856 149.975 43.1798 150.487H39.767V153.021H44.2053C44.3119 153.52 44.3647 153.972 44.3647 154.376C44.3647 154.817 44.3119 155.286 44.2053 155.786H36.6361V142.957H44.0996C44.1468 143.219 44.1821 143.463 44.2053 143.689C44.2293 143.914 44.2406 144.129 44.2406 144.331C44.2406 144.723 44.1933 145.193 44.0996 145.74H39.767V147.703H43.1798C43.2856 148.227 43.3385 148.691 43.3385 149.095ZM47.0269 142.993C47.3458 142.945 47.6342 142.91 47.8938 142.885C48.1533 142.862 48.3833 142.85 48.5835 142.85C48.7959 142.85 49.0346 142.862 49.2997 142.885C49.5649 142.91 49.8509 142.945 50.1578 142.993V152.984H54.2428C54.3013 153.282 54.3397 153.54 54.3573 153.761C54.375 153.981 54.3838 154.18 54.3838 154.358C54.3838 154.56 54.375 154.771 54.3573 154.992C54.3397 155.212 54.3013 155.476 54.2428 155.786H47.0269V142.993ZM61.7326 147.953C62.2278 148.155 62.6732 148.361 63.0682 148.569C63.4631 148.777 63.802 149.027 64.0848 149.318C64.3676 149.61 64.5855 149.96 64.7393 150.371C64.8923 150.781 64.9693 151.278 64.9693 151.861C64.9693 152.491 64.8603 153.059 64.6416 153.565C64.4237 154.07 64.1024 154.504 63.6778 154.867C63.254 155.23 62.7316 155.509 62.1132 155.706C61.4939 155.901 60.7841 156 59.9821 156C59.2507 156 58.6058 155.94 58.0458 155.821C57.4858 155.702 56.8817 155.518 56.2328 155.268C56.2801 154.852 56.3626 154.409 56.4804 153.939C56.5981 153.469 56.7399 152.991 56.905 152.502C57.9897 152.979 58.9327 153.216 59.7346 153.216C60.3354 153.216 60.8041 153.124 61.1406 152.94C61.4763 152.755 61.6445 152.437 61.6445 151.985C61.6445 151.795 61.6093 151.631 61.538 151.495C61.4675 151.358 61.3729 151.242 61.2552 151.147C61.1374 151.052 61.0044 150.972 60.857 150.906C60.7104 150.841 60.5598 150.778 60.4068 150.719L59.4157 150.343C58.992 150.189 58.6058 150.005 58.2581 149.791C57.9096 149.576 57.6124 149.324 57.3648 149.032C57.1173 148.741 56.9258 148.405 56.7896 148.025C56.6542 147.644 56.5869 147.198 56.5869 146.686C56.5869 146.056 56.6927 145.497 56.905 145.009C57.1173 144.521 57.4145 144.108 57.7983 143.769C58.1812 143.43 58.6442 143.174 59.1866 143.002C59.7282 142.83 60.3354 142.743 61.0076 142.743C61.6093 142.743 62.1893 142.802 62.7493 142.922C63.3093 143.041 63.9077 143.213 64.5447 143.439C64.4974 143.82 64.4117 144.238 64.2883 144.697C64.1641 145.155 64.0079 145.586 63.8196 145.99C63.5128 145.859 63.1531 145.723 62.7405 145.58C62.3279 145.437 61.8152 145.366 61.2023 145.366C61.0132 145.366 60.8338 145.384 60.6631 145.419C60.4917 145.455 60.3387 145.512 60.2033 145.589C60.0679 145.666 59.9581 145.773 59.8756 145.91C59.7931 146.047 59.7522 146.216 59.7522 146.418C59.7522 146.764 59.8644 147.019 60.0879 147.186C60.3122 147.352 60.5774 147.495 60.8842 147.614L61.7326 147.953ZM78.3307 148.845C78.6487 148.797 78.9323 148.762 79.1799 148.738C79.4274 148.714 79.6574 148.703 79.8697 148.703C80.07 148.703 80.3111 148.714 80.5947 148.738C80.8775 148.762 81.1547 148.797 81.4255 148.845V155.34C80.7301 155.601 80.0435 155.774 79.3649 155.857C78.6872 155.94 78.1072 155.982 77.6233 155.982C76.5858 155.982 75.6781 155.818 74.9002 155.491C74.1223 155.164 73.4701 154.709 72.9462 154.126C72.4215 153.544 72.0289 152.848 71.7701 152.038C71.5105 151.23 71.3808 150.35 71.3808 149.399C71.3808 148.446 71.5162 147.564 71.7878 146.749C72.0585 145.933 72.4511 145.229 72.9638 144.635C73.4766 144.04 74.1103 143.576 74.8649 143.243C75.6188 142.91 76.4736 142.743 77.4286 142.743C77.995 142.743 78.5341 142.784 79.0469 142.868C79.5596 142.951 80.1228 143.124 80.7357 143.386C80.7125 143.873 80.6235 144.349 80.4705 144.812C80.3175 145.276 80.1581 145.669 79.993 145.99C79.7575 145.907 79.542 145.836 79.3473 145.776C79.1534 145.717 78.9676 145.669 78.7905 145.634C78.6135 145.598 78.4372 145.571 78.2602 145.554C78.0831 145.535 77.8949 145.526 77.6937 145.526C76.7388 145.526 76.0025 145.85 75.4834 146.498C74.9651 147.148 74.7055 148.113 74.7055 149.399C74.7055 150.671 74.9587 151.62 75.4658 152.244C75.9729 152.869 76.7276 153.181 77.7298 153.181C77.9533 153.181 78.1536 153.163 78.3307 153.127V148.845ZM84.4418 142.993C85.0202 142.933 85.5529 142.877 86.0424 142.823C86.5319 142.77 87.0479 142.743 87.5903 142.743C88.2384 142.743 88.8865 142.805 89.5354 142.931C90.1835 143.055 90.7611 143.273 91.2683 143.581C91.7754 143.891 92.188 144.313 92.506 144.849C92.8249 145.384 92.9835 146.062 92.9835 146.882C92.9835 147.323 92.9339 147.718 92.8337 148.069C92.7328 148.42 92.6038 148.732 92.4443 149.006C92.2849 149.279 92.1087 149.517 91.914 149.72C91.7193 149.922 91.5278 150.094 91.3388 150.237L94.0979 155.732C93.8151 155.78 93.5051 155.816 93.1694 155.839C92.8337 155.863 92.5301 155.875 92.2585 155.875C92.023 155.875 91.749 155.863 91.4365 155.839C91.1241 155.816 90.8501 155.78 90.6138 155.732L88.103 149.898L88.2616 149.808C88.4034 149.737 88.5596 149.618 88.7303 149.452C88.9017 149.285 89.0603 149.086 89.2077 148.854C89.3551 148.622 89.4793 148.363 89.5795 148.078C89.6796 147.793 89.7301 147.495 89.7301 147.186C89.7301 146.591 89.565 146.157 89.2342 145.883C88.9041 145.609 88.4979 145.473 88.014 145.473C87.8963 145.473 87.7961 145.479 87.7136 145.491C87.6311 145.503 87.5782 145.515 87.5542 145.526V155.732C86.9301 155.839 86.4166 155.892 86.016 155.892C85.5802 155.892 85.0554 155.839 84.4418 155.732V142.993ZM95.5399 149.416C95.5399 148.464 95.6489 147.582 95.8668 146.767C96.0855 145.952 96.4212 145.247 96.8754 144.652C97.3289 144.057 97.9065 143.59 98.6083 143.252C99.3093 142.913 100.144 142.743 101.11 142.743C102.077 142.743 102.909 142.913 103.604 143.252C104.3 143.59 104.874 144.057 105.328 144.652C105.783 145.247 106.118 145.952 106.336 146.767C106.554 147.582 106.664 148.464 106.664 149.416C106.664 150.368 106.554 151.245 106.336 152.047C106.118 152.851 105.783 153.547 105.328 154.135C104.874 154.724 104.3 155.182 103.604 155.509C102.909 155.837 102.077 156 101.11 156C100.144 156 99.3093 155.837 98.6083 155.509C97.9065 155.182 97.3289 154.724 96.8754 154.135C96.4212 153.547 96.0855 152.851 95.8668 152.047C95.6489 151.245 95.5399 150.368 95.5399 149.416ZM103.374 149.416C103.374 146.823 102.625 145.526 101.128 145.526C99.5953 145.526 98.8294 146.823 98.8294 149.416C98.8294 150.713 99.0153 151.679 99.3862 152.316C99.7579 152.952 100.332 153.27 101.11 153.27C102.62 153.27 103.374 151.985 103.374 149.416ZM114.313 155.982C113.358 155.982 112.566 155.851 111.935 155.589C111.304 155.327 110.806 154.95 110.44 154.456C110.075 153.963 109.819 153.365 109.671 152.663C109.524 151.962 109.45 151.17 109.45 150.29V142.993C109.792 142.945 110.087 142.913 110.335 142.895C110.582 142.877 110.818 142.868 111.042 142.868C111.242 142.868 111.463 142.877 111.705 142.895C111.946 142.913 112.238 142.945 112.58 142.993V149.916C112.58 150.51 112.604 151.016 112.652 151.432C112.698 151.849 112.784 152.187 112.908 152.449C113.031 152.711 113.205 152.899 113.429 153.011C113.653 153.124 113.948 153.181 114.313 153.181C114.679 153.181 114.976 153.124 115.206 153.011C115.436 152.899 115.613 152.711 115.737 152.449C115.861 152.187 115.943 151.849 115.984 151.432C116.026 151.016 116.047 150.51 116.047 149.916V142.993C116.4 142.945 116.698 142.913 116.939 142.895C117.181 142.877 117.402 142.868 117.603 142.868C117.815 142.868 118.045 142.877 118.292 142.895C118.54 142.913 118.835 142.945 119.177 142.993V150.29C119.177 151.17 119.103 151.962 118.956 152.663C118.808 153.365 118.552 153.963 118.187 154.456C117.821 154.95 117.323 155.327 116.692 155.589C116.061 155.851 115.268 155.982 114.313 155.982ZM125.358 149.024C125.418 149.047 125.518 149.065 125.659 149.077C125.801 149.089 125.948 149.095 126.101 149.095C126.608 149.095 127.021 148.946 127.34 148.649C127.658 148.352 127.817 147.899 127.817 147.293C127.817 146.936 127.767 146.636 127.666 146.392C127.566 146.148 127.428 145.952 127.251 145.803C127.074 145.655 126.868 145.55 126.632 145.491C126.396 145.432 126.148 145.402 125.889 145.402C125.818 145.402 125.736 145.402 125.641 145.402C125.547 145.402 125.453 145.407 125.358 145.419V149.024ZM122.299 142.993C122.57 142.957 122.986 142.906 123.546 142.841C124.106 142.775 124.81 142.743 125.659 142.743C126.284 142.743 126.915 142.802 127.551 142.922C128.188 143.041 128.762 143.264 129.276 143.59C129.789 143.918 130.204 144.378 130.523 144.973C130.841 145.568 131 146.341 131 147.293C131 148.138 130.873 148.839 130.619 149.399C130.366 149.957 130.03 150.403 129.612 150.736C129.193 151.069 128.716 151.307 128.179 151.45C127.642 151.593 127.091 151.664 126.526 151.664C126.302 151.664 126.075 151.655 125.845 151.638C125.615 151.62 125.453 151.599 125.358 151.575V155.732C125.052 155.791 124.775 155.833 124.528 155.857C124.28 155.881 124.05 155.892 123.838 155.892C123.425 155.892 122.913 155.839 122.299 155.732V142.993Z" fill="#EDEDED"/>
<path fill-rule="evenodd" clip-rule="evenodd" d="M65.5271 0C92.0919 0 113.627 21.728 113.627 48.5291C113.627 73.8477 94.4089 94.6348 69.8873 96.858C69.041 93.3083 68.8571 89.726 69.8873 86.0848C88.5311 83.9051 103.004 67.9238 103.004 48.5291C103.004 27.6473 86.2249 10.7182 65.5271 10.7182C44.8293 10.7182 28.0505 27.6473 28.0505 48.5291C28.0505 63.3361 36.4868 76.1527 48.7743 82.3586V28.1711H81.6568C81.8647 29.3237 82.02 30.3982 82.124 31.394C82.2286 32.3898 82.2799 33.3339 82.2799 34.2242C82.2799 35.9536 82.0726 38.0239 81.6568 40.4352H62.5666V50.0257H77.6047C78.0726 52.3845 78.3065 54.4286 78.3065 56.1581C78.3065 57.9399 78.0726 60.0103 77.6047 62.3691H62.5666V62.8897V96.9648C37.3807 95.4208 17.4272 74.328 17.4272 48.5291C17.4272 21.728 38.9623 0 65.5271 0Z" fill="#EDEDED"/>
</svg>
