<svg width="79" height="94" viewBox="0 0 79 94" fill="none" xmlns="http://www.w3.org/2000/svg">
<path fill-rule="evenodd" clip-rule="evenodd" d="M0.0565796 66.9603H8.75582C8.8109 67.2652 8.85195 67.5492 8.8795 67.8122C8.90703 68.0756 8.92056 68.325 8.92056 68.5603C8.92056 69.0176 8.86598 69.5645 8.75582 70.2021H3.70517V72.7371H7.68376C7.80744 73.3606 7.86927 73.9012 7.86927 74.3585C7.86927 74.8295 7.80744 75.3765 7.68376 75.9999H3.70517V81.8395C2.9771 81.9642 2.37222 82.0266 1.89151 82.0266C1.38276 82.0266 0.771123 81.9642 0.0565796 81.8395V66.9603ZM11.371 74.4832C11.371 73.3747 11.4986 72.3461 11.7527 71.3968C12.0068 70.4481 12.3986 69.6269 12.9276 68.9343C13.4567 68.2417 14.1302 67.6977 14.9476 67.3032C15.7656 66.9082 16.7376 66.7109 17.8648 66.7109C18.9914 66.7109 19.9606 66.9082 20.7713 67.3032C21.582 67.6977 22.2521 68.2417 22.7811 68.9343C23.3101 69.6269 23.7019 70.4481 23.9561 71.3968C24.2102 72.3461 24.3377 73.3747 24.3377 74.4832C24.3377 75.5912 24.2102 76.6131 23.9561 77.5482C23.7019 78.4833 23.3101 79.2937 22.7811 79.9795C22.2521 80.6653 21.582 81.1986 20.7713 81.5799C19.9606 81.9608 18.9914 82.1512 17.8648 82.1512C16.7376 82.1512 15.7656 81.9608 14.9476 81.5799C14.1302 81.1986 13.4567 80.6653 12.9276 79.9795C12.3986 79.2937 12.0068 78.4833 11.7527 77.5482C11.4986 76.6131 11.371 75.5912 11.371 74.4832ZM20.5031 74.4832C20.5031 71.4626 19.6306 69.9527 17.885 69.9527C16.0989 69.9527 15.2056 71.4626 15.2056 74.4832C15.2056 75.993 15.422 77.1186 15.8549 77.8599C16.2878 78.6012 16.9574 78.9718 17.8648 78.9718C19.6238 78.9718 20.5031 77.4756 20.5031 74.4832ZM28.4579 67.0017C28.7463 66.9603 29.0594 66.9218 29.3961 66.8873C29.7324 66.8527 30.0454 66.8356 30.3339 66.8356C30.6087 66.8356 30.9073 66.8527 31.2306 66.8873C31.5533 66.9218 31.8523 66.9603 32.1272 67.0017L35.0545 74.7326L38.0847 67.0017C38.3596 66.9603 38.6379 66.9218 38.9196 66.8873C39.2012 66.8527 39.4795 66.8356 39.7544 66.8356C40.0433 66.8356 40.3385 66.8527 40.6409 66.8873C40.9434 66.9218 41.2386 66.9603 41.5275 67.0017L42.228 81.8395C42.0082 81.8809 41.7642 81.9228 41.4966 81.9642C41.2285 82.0056 40.8743 82.0266 40.4347 82.0266C39.954 82.0266 39.3834 81.9642 38.7239 81.8395L38.435 73.2359L36.1677 78.9095C35.9203 78.9509 35.6729 78.9854 35.4256 79.0132C35.1782 79.041 34.9516 79.0546 34.7453 79.0546C34.539 79.0546 34.326 79.0444 34.1061 79.0234C33.8863 79.003 33.6597 78.965 33.4259 78.9095L31.4059 73.3192L31.1789 81.8395C30.602 81.9642 30.0522 82.0266 29.5299 82.0266C29.0487 82.0266 28.4922 81.9642 27.8602 81.8395L28.4579 67.0017ZM47.9773 82.0266C47.4685 82.0266 46.8569 81.9642 46.1423 81.8395V67.0017C46.5134 66.9462 46.8501 66.9048 47.1526 66.877C47.455 66.8493 47.7227 66.8356 47.9565 66.8356C48.2039 66.8356 48.4822 66.8493 48.7914 66.877C49.1006 66.9048 49.4339 66.9462 49.791 67.0017V81.8395C49.0629 81.9642 48.458 82.0266 47.9773 82.0266ZM57.3331 74.4623C57.3331 77.3992 58.5564 78.8676 61.0025 78.8676C61.4421 78.8676 61.8581 78.8262 62.2499 78.7429C62.6413 78.6601 63.1191 78.5213 63.6824 78.3274C64.1361 79.3249 64.4385 80.3501 64.5892 81.4031C64.1911 81.5556 63.8201 81.6803 63.4761 81.7772C63.1326 81.8741 62.8031 81.9467 62.4866 81.9954C62.1707 82.0441 61.8581 82.0787 61.5489 82.0991C61.2397 82.1201 60.9203 82.1303 60.5904 82.1303C59.4222 82.1303 58.395 81.9399 57.5085 81.559C56.6219 81.1781 55.8798 80.6482 55.2822 79.9693C54.6841 79.2903 54.2343 78.4799 53.9319 77.5379C53.6294 76.5955 53.4782 75.5703 53.4782 74.4623C53.4782 73.3538 53.6367 72.3251 53.9526 71.3763C54.2686 70.4271 54.7257 69.6064 55.3233 68.9134C55.9214 68.2208 56.6596 67.6806 57.5394 67.2925C58.4187 66.9048 59.4154 66.7109 60.5285 66.7109C61.188 66.7109 61.8132 66.7592 62.4045 66.8561C62.9954 66.953 63.6549 67.1473 64.3834 67.4381C64.3559 68.006 64.253 68.5568 64.0742 69.0902C63.8955 69.6235 63.7099 70.091 63.5176 70.4929C63.2427 70.3959 62.992 70.3127 62.7649 70.2435C62.5383 70.1743 62.3219 70.1188 62.1156 70.0774C61.9098 70.036 61.7035 70.0048 61.4972 69.9839C61.2914 69.9629 61.0711 69.9527 60.8377 69.9527C59.7246 69.9527 58.8622 70.3302 58.2506 71.0851C57.6389 71.8405 57.3331 72.9661 57.3331 74.4623ZM77.1617 82.0266C76.6535 82.0266 76.0418 81.9642 75.3273 81.8395V75.7714H71.6782V81.8395C70.9501 81.9642 70.3452 82.0266 69.8645 82.0266C69.3558 82.0266 68.7441 81.9642 68.0296 81.8395V67.0017C68.4007 66.9462 68.7374 66.9048 69.0398 66.877C69.3423 66.8493 69.6099 66.8356 69.8438 66.8356C70.0911 66.8356 70.3694 66.8493 70.6786 66.877C70.9878 66.9048 71.3212 66.9462 71.6782 67.0017V72.5087H75.3273V67.0017C75.6983 66.9462 76.0312 66.9048 76.3269 66.877C76.6226 66.8493 76.8936 66.8356 77.1409 66.8356C77.3883 66.8356 77.6666 66.8493 77.9758 66.877C78.285 66.9048 78.6183 66.9462 78.9759 67.0017V81.8395C78.2473 81.9642 77.6429 82.0266 77.1617 82.0266Z" fill="url(#paint0_linear)"/>
<path fill-rule="evenodd" clip-rule="evenodd" d="M4.72453 93.9352C4.46172 93.9352 4.14525 93.9031 3.77565 93.8388V90.6993H1.88806V93.8388C1.51124 93.9031 1.19817 93.9352 0.949356 93.9352C0.686517 93.9352 0.370073 93.9031 0 93.8388V86.1625C0.192286 86.1337 0.366222 86.1123 0.522756 86.0977C0.679291 86.0836 0.817949 86.0763 0.938731 86.0763C1.06676 86.0763 1.21072 86.0836 1.37063 86.0977C1.53057 86.1123 1.70303 86.1337 1.88806 86.1625V89.0117H3.77565V86.1625C3.96746 86.1337 4.13995 86.1123 4.29261 86.0977C4.44577 86.0836 4.58587 86.0763 4.71391 86.0763C4.84194 86.0763 4.9859 86.0836 5.14583 86.0977C5.30574 86.1123 5.4782 86.1337 5.66326 86.1625V93.8388C5.28642 93.9031 4.97335 93.9352 4.72453 93.9352ZM7.38609 90.033C7.38609 89.4593 7.4518 88.9274 7.58321 88.4365C7.71511 87.9455 7.91755 87.5208 8.19147 87.1624C8.46493 86.8039 8.81325 86.5224 9.23648 86.3183C9.65923 86.1142 10.1626 86.012 10.7453 86.012C11.3284 86.012 11.8299 86.1142 12.2493 86.3183C12.6686 86.5224 13.0151 86.8039 13.289 87.1624C13.5629 87.5208 13.7653 87.9455 13.8968 88.4365C14.0282 88.9274 14.0944 89.4593 14.0944 90.033C14.0944 90.6063 14.0282 91.1347 13.8968 91.6183C13.7653 92.1025 13.5629 92.5218 13.289 92.8764C13.0151 93.2315 12.6686 93.5071 12.2493 93.7044C11.8299 93.9016 11.3284 94 10.7453 94C10.1626 94 9.65923 93.9016 9.23648 93.7044C8.81325 93.5071 8.46493 93.2315 8.19147 92.8764C7.91755 92.5218 7.71511 92.1025 7.58321 91.6183C7.4518 91.1347 7.38609 90.6063 7.38609 90.033ZM12.1106 90.033C12.1106 88.4701 11.6589 87.6889 10.7559 87.6889C9.83171 87.6889 9.36983 88.4701 9.36983 90.033C9.36983 90.8142 9.48192 91.3963 9.7056 91.78C9.92977 92.1634 10.2762 92.3553 10.7453 92.3553C11.6555 92.3553 12.1106 91.5809 12.1106 90.033ZM16.8941 87.8179H15.1133C15.049 87.5101 15.0171 87.2266 15.0171 86.9685C15.0171 86.7323 15.049 86.4562 15.1133 86.141H20.563C20.591 86.2988 20.6128 86.4454 20.6268 86.5818C20.6408 86.7177 20.648 86.8468 20.648 86.9685C20.648 87.2052 20.6195 87.4882 20.563 87.8179H18.7817V93.8388C18.4049 93.9031 18.0923 93.9352 17.8434 93.9352C17.5801 93.9352 17.2637 93.9031 16.8941 93.8388V87.8179ZM26.1354 89.8392C26.1354 90.09 26.1035 90.3696 26.0398 90.6779H23.9816V92.2048H26.6582C26.7224 92.5058 26.7543 92.778 26.7543 93.0215C26.7543 93.287 26.7224 93.5699 26.6582 93.8709H22.0935V86.141H26.5944C26.6229 86.2988 26.6441 86.4454 26.6582 86.5818C26.6726 86.7177 26.6794 86.8468 26.6794 86.9685C26.6794 87.2052 26.6509 87.4882 26.5944 87.8179H23.9816V89.0005H26.0398C26.1035 89.3161 26.1354 89.5957 26.1354 89.8392ZM28.3597 86.1625C28.552 86.1337 28.726 86.1123 28.8825 86.0977C29.039 86.0836 29.1777 86.0763 29.2985 86.0763C29.4265 86.0763 29.5705 86.0836 29.7304 86.0977C29.8903 86.1123 30.0628 86.1337 30.2478 86.1625V92.1828H32.7113C32.7466 92.3621 32.7698 92.5179 32.7804 92.6509C32.791 92.7834 32.7963 92.9032 32.7963 93.0108C32.7963 93.1326 32.791 93.2597 32.7804 93.3927C32.7698 93.5251 32.7466 93.6844 32.7113 93.8709H28.3597V86.1625ZM37.2281 89.1515C37.5267 89.2732 37.7953 89.3969 38.0335 89.5221C38.2716 89.6478 38.476 89.7982 38.6466 89.9736C38.8171 90.1494 38.9485 90.3608 39.0413 90.6082C39.1335 90.8552 39.1799 91.1547 39.1799 91.5059C39.1799 91.8857 39.1142 92.2276 38.9823 92.5325C38.8509 92.8369 38.6572 93.0985 38.4011 93.3172C38.1456 93.5358 37.8305 93.7044 37.4576 93.8227C37.0841 93.9406 36.6561 94 36.1724 94C35.7313 94 35.3424 93.964 35.0047 93.8924C34.667 93.8208 34.3027 93.7097 33.9114 93.5592C33.9399 93.3084 33.9897 93.0415 34.0607 92.758C34.1317 92.475 34.2172 92.1867 34.3167 91.8925C34.9709 92.1794 35.5395 92.3226 36.0232 92.3226C36.3855 92.3226 36.6681 92.2671 36.8711 92.156C37.0735 92.045 37.1749 91.8531 37.1749 91.5809C37.1749 91.4664 37.1537 91.3675 37.1107 91.2852C37.0682 91.2029 37.0112 91.1328 36.9401 91.0758C36.8691 91.0183 36.7889 90.9701 36.7 90.9306C36.6116 90.8912 36.5208 90.8537 36.4285 90.8176L35.8309 90.5916C35.5753 90.4986 35.3424 90.3876 35.1328 90.2585C34.9226 90.1295 34.7433 89.9775 34.5941 89.8017C34.4448 89.6259 34.3293 89.4237 34.2472 89.1943C34.1655 88.9649 34.1249 88.6961 34.1249 88.3878C34.1249 88.0079 34.1887 87.6713 34.3167 87.3772C34.4448 87.0835 34.624 86.8346 34.8554 86.63C35.0864 86.426 35.3656 86.2716 35.6927 86.1678C36.0193 86.0641 36.3855 86.012 36.7908 86.012C37.1537 86.012 37.5035 86.0475 37.8412 86.1196C38.1789 86.1912 38.5398 86.295 38.9239 86.4313C38.8954 86.6607 38.8437 86.913 38.7693 87.1892C38.6944 87.4653 38.6002 87.7249 38.4866 87.9684C38.3016 87.8895 38.0847 87.8072 37.8359 87.7215C37.587 87.6353 37.2778 87.5924 36.9083 87.5924C36.7942 87.5924 36.686 87.6031 36.5831 87.6246C36.4797 87.646 36.3874 87.6801 36.3058 87.7268C36.2241 87.7731 36.158 87.8379 36.1082 87.9202C36.0584 88.0025 36.0338 88.1048 36.0338 88.2266C36.0338 88.4345 36.1014 88.5884 36.2362 88.6888C36.3715 88.7891 36.5314 88.8753 36.7164 88.9469L37.2281 89.1515ZM47.2376 89.6887C47.4294 89.6599 47.6004 89.6385 47.7497 89.6244C47.899 89.6098 48.0376 89.603 48.1657 89.603C48.2865 89.603 48.4319 89.6098 48.6029 89.6244C48.7734 89.6385 48.9406 89.6599 49.1039 89.6887V93.6021C48.6846 93.7599 48.2705 93.8636 47.8613 93.9138C47.4526 93.964 47.1028 93.9893 46.811 93.9893C46.1853 93.9893 45.6379 93.8904 45.1688 93.6936C44.6997 93.4964 44.3064 93.2222 43.9905 92.871C43.674 92.5199 43.4373 92.1005 43.2812 91.613C43.1247 91.1259 43.0464 90.5956 43.0464 90.0223C43.0464 89.4486 43.1281 88.9167 43.2919 88.4258C43.4551 87.9343 43.6919 87.5101 44.0011 87.1517C44.3103 86.7932 44.6924 86.5136 45.1475 86.313C45.6022 86.1123 46.1177 86.012 46.6936 86.012C47.0351 86.012 47.3603 86.0368 47.6695 86.087C47.9787 86.1371 48.3183 86.2414 48.6879 86.3992C48.6739 86.6928 48.6203 86.9797 48.528 87.2588C48.4357 87.5384 48.3396 87.7751 48.2401 87.9684C48.098 87.9183 47.9681 87.8754 47.8507 87.8394C47.7338 87.8038 47.6217 87.7751 47.5149 87.7536C47.4081 87.7322 47.3018 87.7161 47.1951 87.7054C47.0883 87.6942 46.9748 87.6889 46.8535 87.6889C46.2776 87.6889 45.8336 87.8842 45.5205 88.2748C45.2079 88.6659 45.0514 89.2479 45.0514 90.0223C45.0514 90.7889 45.2041 91.3607 45.5099 91.7367C45.8157 92.1132 46.2708 92.3012 46.8752 92.3012C47.01 92.3012 47.1308 92.2905 47.2376 92.269V89.6887ZM50.9229 86.1625C51.2717 86.1264 51.593 86.0923 51.8882 86.0602C52.1834 86.028 52.4945 86.012 52.8216 86.012C53.2125 86.012 53.6033 86.0495 53.9946 86.125C54.3855 86.2 54.7338 86.331 55.0396 86.517C55.3455 86.7036 55.5943 86.9578 55.7861 87.2807C55.9784 87.6031 56.074 88.0118 56.074 88.5061C56.074 88.7715 56.0441 89.0097 55.9837 89.2211C55.9228 89.4325 55.845 89.6205 55.7489 89.7856C55.6527 89.9502 55.5464 90.0939 55.429 90.2157C55.3116 90.3374 55.1962 90.4412 55.0822 90.5274L56.7461 93.8388C56.5755 93.8675 56.3885 93.8889 56.1861 93.9031C55.9837 93.9177 55.8006 93.9245 55.6368 93.9245C55.4948 93.9245 55.3295 93.9177 55.1411 93.9031C54.9527 93.8889 54.7874 93.8675 54.6449 93.8388L53.1308 90.3233L53.2265 90.2692C53.312 90.2264 53.4062 90.1548 53.5091 90.0544C53.6125 89.9541 53.7081 89.8338 53.797 89.694C53.8859 89.5542 53.9608 89.3984 54.0212 89.2265C54.0816 89.0545 54.112 88.8753 54.112 88.6888C54.112 88.3308 54.0125 88.0688 53.813 87.9041C53.6139 87.739 53.369 87.6567 53.0772 87.6567C53.0061 87.6567 52.9458 87.6606 52.896 87.6674C52.8462 87.6747 52.8144 87.682 52.7999 87.6889V93.8388C52.4235 93.9031 52.1138 93.9352 51.8722 93.9352C51.6094 93.9352 51.293 93.9031 50.9229 93.8388V86.1625ZM57.6157 90.033C57.6157 89.4593 57.6814 88.9274 57.8128 88.4365C57.9447 87.9455 58.1471 87.5208 58.4211 87.1624C58.6945 86.8039 59.0429 86.5224 59.4661 86.3183C59.8888 86.1142 60.3922 86.012 60.9749 86.012C61.558 86.012 62.0595 86.1142 62.4789 86.3183C62.8982 86.5224 63.2447 86.8039 63.5186 87.1624C63.7925 87.5208 63.9949 87.9455 64.1264 88.4365C64.2578 88.9274 64.324 89.4593 64.324 90.033C64.324 90.6063 64.2578 91.1347 64.1264 91.6183C63.9949 92.1025 63.7925 92.5218 63.5186 92.8764C63.2447 93.2315 62.8982 93.5071 62.4789 93.7044C62.0595 93.9016 61.558 94 60.9749 94C60.3922 94 59.8888 93.9016 59.4661 93.7044C59.0429 93.5071 58.6945 93.2315 58.4211 92.8764C58.1471 92.5218 57.9447 92.1025 57.8128 91.6183C57.6814 91.1347 57.6157 90.6063 57.6157 90.033ZM62.3402 90.033C62.3402 88.4701 61.8885 87.6889 60.9855 87.6889C60.0613 87.6889 59.5994 88.4701 59.5994 90.033C59.5994 90.8142 59.7115 91.3963 59.9352 91.78C60.1594 92.1634 60.5058 92.3553 60.9749 92.3553C61.8851 92.3553 62.3402 91.5809 62.3402 90.033ZM68.9369 93.9893C68.361 93.9893 67.8832 93.9104 67.503 93.7526C67.1223 93.5948 66.8217 93.3673 66.6014 93.0697C66.3811 92.7726 66.2265 92.4122 66.1376 91.9895C66.0487 91.5667 66.0043 91.0899 66.0043 90.5595V86.1625C66.2106 86.1337 66.3884 86.1142 66.5377 86.1035C66.687 86.0923 66.829 86.087 66.9643 86.087C67.0851 86.087 67.2184 86.0923 67.3643 86.1035C67.5097 86.1142 67.6856 86.1337 67.8919 86.1625V90.334C67.8919 90.692 67.9064 90.9969 67.9349 91.2477C67.9629 91.4985 68.0146 91.7026 68.0895 91.8604C68.1639 92.0182 68.2687 92.1312 68.404 92.1989C68.5388 92.2671 68.7166 92.3012 68.9369 92.3012C69.1577 92.3012 69.3369 92.2671 69.4756 92.1989C69.6142 92.1312 69.721 92.0182 69.7954 91.8604C69.8703 91.7026 69.9201 91.4985 69.9447 91.2477C69.9698 90.9969 69.9824 90.692 69.9824 90.334V86.1625C70.1954 86.1337 70.3752 86.1142 70.5206 86.1035C70.6665 86.0923 70.7998 86.087 70.9206 86.087C71.0486 86.087 71.1873 86.0923 71.3366 86.1035C71.4859 86.1142 71.6637 86.1337 71.87 86.1625V90.5595C71.87 91.0899 71.8255 91.5667 71.7366 91.9895C71.6477 92.4122 71.4931 92.7726 71.2728 93.0697C71.0525 93.3673 70.752 93.5948 70.3713 93.7526C69.9911 93.9104 69.5128 93.9893 68.9369 93.9893ZM75.5978 89.7963C75.6335 89.8104 75.6939 89.8212 75.779 89.8285C75.8645 89.8358 75.9534 89.8392 76.0457 89.8392C76.3515 89.8392 76.6003 89.7495 76.7926 89.5703C76.9844 89.3916 77.0805 89.1188 77.0805 88.7535C77.0805 88.5383 77.0501 88.3576 76.9897 88.2105C76.9293 88.0634 76.8457 87.9455 76.739 87.8559C76.6322 87.7663 76.508 87.7035 76.366 87.6674C76.2234 87.6319 76.0742 87.6139 75.9176 87.6139C75.8751 87.6139 75.8254 87.6139 75.7683 87.6139C75.7118 87.6139 75.6548 87.6173 75.5978 87.6246V89.7963ZM73.7527 86.1625C73.9165 86.141 74.1673 86.1104 74.505 86.0709C74.8427 86.0314 75.2673 86.012 75.779 86.012C76.1558 86.012 76.5365 86.0475 76.9201 86.1196C77.3042 86.1912 77.6506 86.3256 77.9603 86.5224C78.2695 86.7196 78.5203 86.9973 78.7121 87.3557C78.9039 87.7142 79 88.1798 79 88.7535C79 89.2625 78.9237 89.6853 78.7705 90.0223C78.6178 90.3588 78.4149 90.6277 78.1627 90.8284C77.9106 91.029 77.6226 91.1722 77.2989 91.2584C76.9752 91.3446 76.6428 91.3875 76.3017 91.3875C76.1669 91.3875 76.0297 91.3821 75.8911 91.3714C75.7524 91.3607 75.6548 91.348 75.5978 91.3339V93.8388C75.4133 93.8743 75.2461 93.8997 75.0968 93.9138C74.9475 93.9284 74.8088 93.9352 74.6808 93.9352C74.432 93.9352 74.1228 93.9031 73.7527 93.8388V86.1625Z" fill="url(#paint1_linear)"/>
<path fill-rule="evenodd" clip-rule="evenodd" d="M39.5162 0C55.5361 0 68.523 13.0925 68.523 29.2419C68.523 44.498 56.9334 57.0235 42.1456 58.3632C41.6352 56.2242 41.5244 54.0657 42.1456 51.8716C53.3888 50.5582 62.1169 40.9285 62.1169 29.2419C62.1169 16.6593 51.998 6.45838 39.5162 6.45838C27.0343 6.45838 16.9158 16.6593 16.9158 29.2419C16.9158 38.1641 22.0033 45.8869 29.4133 49.6264V16.9749H49.2432C49.3686 17.6694 49.4623 18.3168 49.525 18.9169C49.588 19.517 49.619 20.0858 49.619 20.6223C49.619 21.6643 49.494 22.9118 49.2432 24.3648H37.7309V30.1437H46.7996C47.0817 31.565 47.2228 32.7967 47.2228 33.8388C47.2228 34.9125 47.0817 36.16 46.7996 37.5814H37.7309V37.8951V58.4275C22.5424 57.4972 10.5093 44.7874 10.5093 29.2419C10.5093 13.0925 23.4962 0 39.5162 0Z" fill="url(#paint2_linear)"/>
<defs>
<linearGradient id="paint0_linear" x1="-2.44438" y1="83.1693" x2="18.008" y2="39.5193" gradientUnits="userSpaceOnUse">
<stop stop-color="#E9B965"/>
<stop offset="1" stop-color="#F3CC88"/>
</linearGradient>
<linearGradient id="paint1_linear" x1="-2.50352" y1="94.5267" x2="3.79614" y2="68.5121" gradientUnits="userSpaceOnUse">
<stop stop-color="#E9B965"/>
<stop offset="1" stop-color="#F3CC88"/>
</linearGradient>
<linearGradient id="paint2_linear" x1="8.67088" y1="62.2799" x2="79.9368" y2="32.7333" gradientUnits="userSpaceOnUse">
<stop stop-color="#E9B965"/>
<stop offset="1" stop-color="#F3CC88"/>
</linearGradient>
</defs>
</svg>
